<?xml version="1.0" encoding="UTF-8" standalone="no"?>
<svg xmlns="http://www.w3.org/2000/svg" viewBox="0 0 900 600" width="900" height="600"
     role="img" aria-label="Alaska map inset">
  <defs>
    <style type="text/css"><![CDATA[
      .ocean { fill: #ffffff; }
      .region { fill: #b9b9b9; stroke: #ffffff; stroke-width: 0.75; vector-effect: non-scaling-stroke; }
    ]]></style>
  </defs>
  <rect class="ocean" x="0" y="0" width="900" height="600"></rect>
  <g id="alaska">
    <path class="region" d="M 831.86,360.68 L 831.83,361.09 L 830.08,361.65 L 829.35,361.57 L 828.76,360.58 L 828.60,359.54 L 828.76,358.64 L 828.77,357.00 L 828.35,354.41 L 831.80,356.28 L 832.98,357.23 L 833.90,358.58 L 833.18,359.45 L 832.17,360.10 L 831.86,360.68 Z"></path>
    <path class="region" d="M 833.69,367.78 L 833.01,368.10 L 832.05,368.00 L 829.40,366.64 L 829.17,366.05 L 829.24,365.28 L 829.96,363.66 L 830.32,363.20 L 833.06,362.41 L 834.03,362.44 L 834.41,362.96 L 834.57,363.56 L 834.48,364.25 L 834.62,364.90 L 834.99,365.50 L 834.89,366.26 L 833.69,367.78 Z"></path>
    <path class="region" d="M 797.24,324.99 L 797.34,325.64 L 795.52,326.15 L 793.42,325.80 L 792.17,324.88 L 792.18,324.28 L 793.72,323.25 L 795.66,323.88 L 797.24,324.99 Z"></path>
    <path class="region" d="M 644.10,303.13 L 643.78,303.82 L 642.62,303.75 L 641.97,303.43 L 643.75,301.48 L 644.12,301.77 L 644.10,303.13 Z"></path>
    <path class="region" d="M 653.18,315.58 L 652.57,315.83 L 653.27,313.98 L 654.25,311.91 L 655.26,310.55 L 656.72,309.82 L 656.68,310.71 L 654.91,312.60 L 653.18,315.58 Z"></path>
    <path class="region" d="M 607.25,314.61 L 606.64,315.47 L 604.01,315.22 L 604.41,313.60 L 606.29,312.42 L 608.59,313.77 L 607.25,314.61 Z"></path>
    <path class="region" d="M 554.66,310.09 L 554.04,310.20 L 554.84,308.88 L 555.34,306.33 L 556.13,306.66 L 556.30,307.12 L 555.09,309.75 L 554.66,310.09 Z"></path>
    <path class="region" d="M 434.21,437.61 L 433.81,439.65 L 431.88,438.13 L 431.40,437.43 L 431.81,436.98 L 433.77,437.06 L 434.21,437.61 Z"></path>
    <path class="region" d="M 447.89,448.45 L 447.39,448.55 L 447.01,448.23 L 446.57,446.70 L 446.57,446.07 L 447.61,446.63 L 447.93,447.74 L 447.89,448.45 Z"></path>
    <path class="region" d="M 445.97,443.58 L 445.72,445.65 L 445.47,445.96 L 445.12,445.37 L 444.22,445.91 L 443.80,445.42 L 444.05,444.71 L 444.04,444.14 L 444.67,444.15 L 444.90,443.13 L 444.83,442.68 L 445.21,441.78 L 445.68,441.60 L 445.97,443.58 Z"></path>
    <path class="region" d="M 339.45,466.62 L 339.22,466.65 L 338.95,465.94 L 339.03,465.35 L 339.36,464.98 L 340.25,464.13 L 340.82,463.87 L 341.48,463.81 L 341.60,464.11 L 340.84,465.18 L 340.01,465.83 L 339.45,466.62 Z"></path>
    <path class="region" d="M 176.29,474.19 L 174.81,474.28 L 173.47,472.57 L 174.06,471.35 L 175.58,473.08 L 176.29,474.19 Z"></path>
    <path class="region" d="M 401.50,144.16 L 401.06,144.22 L 401.16,143.83 L 402.55,143.01 L 404.98,142.13 L 404.85,142.40 L 403.49,143.18 L 401.50,144.16 Z"></path>
    <path class="region" d="M 327.91,196.56 L 327.91,197.23 L 329.11,197.46 L 330.68,198.18 L 332.33,199.28 L 334.20,199.56 L 336.98,198.28 L 338.47,198.14 L 339.90,198.24 L 341.25,199.09 L 342.43,200.48 L 342.83,201.22 L 343.01,202.38 L 342.98,203.72 L 343.19,204.73 L 345.63,206.55 L 347.26,207.43 L 347.53,208.15 L 347.69,209.09 L 348.98,210.09 L 350.56,210.23 L 351.35,210.67 L 353.91,211.32 L 356.90,213.03 L 355.79,215.39 L 354.49,216.23 L 351.62,215.17 L 348.59,214.80 L 347.06,215.77 L 345.64,217.13 L 345.12,218.66 L 344.34,219.23 L 343.64,219.40 L 343.36,218.40 L 343.35,215.59 L 343.07,214.74 L 342.67,214.15 L 341.45,212.94 L 340.13,212.04 L 339.29,211.75 L 338.92,210.68 L 338.92,209.27 L 338.52,208.43 L 337.63,207.16 L 336.66,206.08 L 333.46,203.45 L 332.33,202.90 L 331.07,202.75 L 329.56,203.14 L 328.00,203.91 L 326.47,204.38 L 325.09,204.19 L 323.95,203.34 L 323.06,201.91 L 322.68,200.96 L 322.74,199.54 L 323.14,198.21 L 323.67,196.98 L 325.19,194.06 L 326.48,193.77 L 327.91,196.56 Z"></path>
    <path class="region" d="M 372.26,295.01 L 373.19,296.51 L 373.80,296.70 L 375.84,296.68 L 376.51,297.09 L 377.11,297.78 L 377.39,298.70 L 377.20,300.20 L 376.64,301.47 L 376.40,303.35 L 376.18,304.15 L 377.04,305.40 L 377.11,306.90 L 377.01,308.47 L 374.62,308.57 L 372.30,308.22 L 370.12,308.88 L 369.57,309.58 L 369.68,310.78 L 369.08,310.97 L 368.62,310.62 L 367.86,309.38 L 366.90,308.67 L 363.37,307.16 L 359.36,303.15 L 357.51,302.10 L 355.97,299.44 L 354.76,296.20 L 356.03,295.99 L 357.26,296.01 L 362.48,297.53 L 363.55,295.62 L 364.33,295.25 L 366.13,295.00 L 367.92,294.18 L 368.62,294.35 L 369.25,294.93 L 370.87,294.54 L 371.69,294.54 L 372.26,295.01 Z"></path>
    <path class="region" d="M 544.38,376.95 L 544.50,378.39 L 545.07,378.20 L 547.20,376.68 L 548.31,376.22 L 549.77,376.12 L 550.95,376.77 L 551.20,377.28 L 551.11,377.90 L 550.21,379.18 L 550.27,379.99 L 551.30,381.47 L 553.79,382.22 L 554.10,382.67 L 554.10,383.21 L 552.47,385.74 L 551.85,386.34 L 551.41,386.49 L 548.31,386.11 L 545.46,385.35 L 544.31,385.23 L 543.91,385.50 L 543.12,386.28 L 543.70,386.50 L 546.19,386.64 L 547.09,387.74 L 547.48,388.55 L 547.69,389.45 L 547.20,389.83 L 546.14,390.12 L 544.86,390.14 L 543.30,391.18 L 542.44,392.36 L 539.27,392.70 L 536.87,394.27 L 536.02,395.04 L 535.73,395.96 L 534.82,396.63 L 532.76,397.31 L 534.00,397.90 L 534.19,398.40 L 534.22,399.10 L 534.05,399.70 L 532.43,402.40 L 529.33,404.61 L 528.54,404.51 L 528.20,404.23 L 527.92,403.81 L 527.91,403.39 L 531.90,398.96 L 531.74,398.74 L 530.66,398.59 L 528.94,397.38 L 527.73,398.16 L 527.46,398.13 L 527.78,397.09 L 528.57,395.84 L 528.43,395.49 L 528.00,395.18 L 527.01,395.00 L 525.45,394.93 L 524.30,395.22 L 523.55,395.87 L 523.48,396.14 L 525.08,396.07 L 525.51,396.40 L 525.94,397.02 L 526.20,397.74 L 526.29,398.54 L 525.95,399.63 L 525.18,400.99 L 524.06,400.75 L 521.79,397.70 L 520.81,393.25 L 518.90,389.84 L 518.82,389.03 L 519.40,386.94 L 521.37,383.99 L 523.47,383.19 L 524.97,381.95 L 526.41,381.58 L 527.30,381.61 L 528.51,382.15 L 529.00,383.29 L 528.71,383.82 L 528.82,384.11 L 529.68,384.79 L 530.61,387.18 L 531.70,389.29 L 532.42,390.15 L 533.37,390.68 L 532.38,389.06 L 531.80,387.06 L 531.49,383.07 L 531.21,382.01 L 531.76,381.73 L 533.30,381.88 L 533.25,381.28 L 531.62,379.94 L 530.63,378.83 L 530.25,377.95 L 530.27,377.19 L 531.15,376.06 L 531.65,375.74 L 532.17,375.60 L 533.19,375.83 L 533.66,376.18 L 534.99,378.71 L 535.61,379.50 L 536.13,379.49 L 536.60,379.07 L 537.03,378.22 L 537.48,377.71 L 537.95,377.54 L 539.42,377.90 L 539.91,377.76 L 540.14,377.12 L 540.12,375.98 L 540.47,375.57 L 540.55,374.73 L 539.74,373.51 L 540.65,373.12 L 543.69,374.02 L 545.01,375.03 L 544.38,376.95 Z"></path>
    <path class="region" d="M 874.75,362.75 L 874.55,364.30 L 874.55,365.88 L 874.75,367.50 L 875.22,369.15 L 875.93,370.83 L 876.76,372.21 L 878.64,374.64 L 879.54,376.23 L 880.00,377.34 L 879.58,382.03 L 879.62,384.18 L 879.99,385.00 L 879.33,387.51 L 877.78,391.24 L 877.19,393.28 L 876.43,392.97 L 872.97,393.81 L 870.50,390.74 L 868.89,388.24 L 867.09,386.21 L 866.92,385.65 L 867.23,383.74 L 870.03,381.19 L 869.88,380.66 L 868.54,380.77 L 868.04,380.32 L 866.79,377.86 L 866.06,375.56 L 865.44,374.09 L 863.80,371.23 L 862.32,369.65 L 858.93,366.76 L 858.43,365.90 L 858.93,364.40 L 859.11,363.11 L 856.27,366.29 L 852.16,370.03 L 850.58,372.16 L 850.33,372.87 L 850.34,373.39 L 851.17,374.56 L 851.25,375.00 L 851.10,375.93 L 851.34,378.28 L 851.07,380.97 L 850.70,381.64 L 848.50,381.45 L 847.74,380.89 L 845.77,378.20 L 845.73,377.32 L 846.19,376.40 L 846.63,374.60 L 847.05,371.93 L 847.33,365.41 L 848.78,364.86 L 850.95,362.80 L 846.73,363.69 L 846.03,363.61 L 845.22,363.02 L 844.31,361.93 L 843.01,360.82 L 841.32,360.87 L 840.48,360.59 L 838.89,359.25 L 837.96,358.72 L 837.27,357.90 L 836.83,356.80 L 836.35,356.33 L 835.24,356.49 L 834.54,356.30 L 833.42,353.45 L 831.10,353.42 L 830.03,353.07 L 828.07,351.72 L 827.40,350.96 L 827.04,350.26 L 826.71,348.14 L 826.45,347.81 L 825.32,348.43 L 816.84,347.82 L 815.92,343.57 L 812.81,338.59 L 810.64,336.86 L 810.66,335.91 L 810.83,335.35 L 811.48,335.12 L 814.82,335.79 L 818.09,336.79 L 818.35,336.40 L 812.80,333.80 L 811.36,332.95 L 810.63,331.59 L 810.37,330.82 L 810.57,330.30 L 814.65,329.34 L 814.79,328.96 L 810.40,329.13 L 809.58,329.40 L 809.24,331.38 L 808.95,331.92 L 808.06,332.12 L 807.69,331.96 L 806.02,330.24 L 804.60,329.13 L 802.17,327.74 L 801.40,326.44 L 800.66,324.39 L 800.29,322.35 L 800.35,317.39 L 800.70,316.43 L 800.70,315.89 L 800.27,316.11 L 799.98,316.67 L 799.42,319.15 L 799.24,322.96 L 798.58,324.45 L 797.85,324.37 L 796.45,323.29 L 793.90,322.23 L 791.43,322.52 L 789.43,321.24 L 785.80,317.07 L 784.79,314.74 L 784.34,314.23 L 782.93,313.81 L 781.87,312.87 L 779.02,307.31 L 776.37,303.65 L 775.37,301.59 L 774.87,299.40 L 774.61,299.22 L 774.60,301.05 L 774.72,301.96 L 773.88,302.48 L 775.24,303.92 L 775.70,304.70 L 775.25,304.76 L 774.42,305.24 L 776.76,307.69 L 778.75,311.97 L 780.72,315.00 L 782.16,317.50 L 783.06,319.46 L 784.06,321.28 L 786.51,325.24 L 786.93,326.05 L 786.99,326.80 L 786.85,327.75 L 786.26,328.27 L 783.96,328.35 L 782.85,327.52 L 781.14,325.90 L 779.27,325.47 L 775.41,327.09 L 775.05,327.03 L 774.62,325.41 L 774.26,322.42 L 773.57,321.37 L 770.35,317.75 L 770.15,316.92 L 772.43,314.17 L 771.02,314.42 L 770.12,315.49 L 769.56,315.13 L 768.14,312.62 L 767.43,311.74 L 767.15,311.58 L 767.75,314.18 L 768.59,315.40 L 768.87,316.16 L 769.10,317.27 L 769.02,318.14 L 768.64,318.76 L 768.15,319.02 L 767.04,318.75 L 765.70,318.03 L 764.64,317.81 L 764.18,317.50 L 763.44,316.49 L 762.48,315.83 L 758.74,315.70 L 756.33,314.98 L 756.25,315.36 L 757.26,316.57 L 757.54,317.36 L 757.08,317.75 L 756.50,319.31 L 756.81,319.42 L 757.69,318.72 L 758.80,318.47 L 760.83,318.77 L 762.77,319.35 L 763.52,319.76 L 764.00,320.55 L 764.30,320.80 L 766.19,321.35 L 766.41,321.86 L 765.79,323.73 L 767.90,322.95 L 769.31,323.15 L 771.59,325.13 L 772.51,326.33 L 773.07,328.04 L 772.88,328.64 L 772.33,329.18 L 768.08,330.99 L 767.05,333.54 L 766.72,333.66 L 765.35,333.43 L 762.69,332.37 L 759.52,331.52 L 752.04,328.46 L 751.81,328.28 L 751.47,327.39 L 750.92,327.04 L 749.98,326.86 L 748.50,325.96 L 746.50,324.35 L 745.18,323.03 L 744.55,321.99 L 743.36,320.93 L 739.89,318.95 L 738.18,318.28 L 736.74,318.02 L 735.59,318.17 L 735.20,317.88 L 735.58,317.17 L 735.57,316.80 L 732.96,316.85 L 730.31,316.16 L 723.53,314.02 L 719.96,312.50 L 717.93,311.85 L 717.04,311.42 L 716.59,311.01 L 716.91,310.41 L 717.98,309.60 L 718.66,308.81 L 719.43,306.27 L 719.36,305.52 L 718.31,304.04 L 717.67,302.62 L 717.50,301.79 L 717.47,300.94 L 717.55,300.36 L 717.96,299.72 L 718.28,299.37 L 718.78,299.44 L 720.74,301.14 L 721.11,301.84 L 721.68,304.65 L 722.86,307.82 L 722.94,307.55 L 722.83,306.44 L 722.45,304.35 L 722.39,303.32 L 722.49,302.27 L 722.91,301.63 L 724.65,301.53 L 725.38,301.18 L 721.78,300.47 L 719.10,298.18 L 718.66,297.97 L 717.51,298.11 L 716.58,299.50 L 714.33,303.86 L 713.61,304.69 L 710.17,307.58 L 707.63,308.56 L 704.60,308.87 L 701.95,308.74 L 694.98,306.82 L 693.84,306.27 L 694.92,303.98 L 694.86,303.35 L 693.95,301.42 L 693.42,300.93 L 692.76,300.73 L 692.63,300.99 L 692.75,301.59 L 693.12,302.67 L 692.76,303.36 L 691.81,304.21 L 690.13,305.20 L 684.22,304.64 L 678.25,304.33 L 673.07,304.96 L 666.01,307.28 L 662.32,309.00 L 660.07,309.47 L 657.86,309.61 L 657.57,308.88 L 658.49,308.27 L 658.35,307.73 L 656.84,306.20 L 654.78,305.45 L 652.18,305.46 L 650.64,305.17 L 650.18,304.59 L 649.19,304.11 L 647.68,303.73 L 646.90,302.78 L 646.95,299.48 L 647.16,297.48 L 647.46,296.08 L 648.36,293.71 L 647.96,293.93 L 646.42,295.80 L 645.11,297.68 L 643.97,300.05 L 643.25,301.17 L 642.28,302.24 L 640.53,302.25 L 638.02,301.21 L 635.93,300.77 L 634.27,300.94 L 633.58,300.79 L 634.56,299.44 L 635.09,298.38 L 635.78,296.70 L 635.88,295.92 L 629.79,296.44 L 629.47,295.64 L 629.39,295.04 L 629.13,294.56 L 628.21,294.29 L 627.02,294.73 L 625.14,295.94 L 624.20,295.30 L 624.46,294.84 L 625.07,294.46 L 626.22,292.90 L 624.36,292.38 L 623.35,291.65 L 622.83,291.01 L 622.58,288.52 L 622.86,286.87 L 626.65,284.86 L 625.32,284.41 L 622.85,284.91 L 621.32,286.42 L 619.53,288.54 L 618.26,289.40 L 617.52,288.99 L 616.60,288.93 L 615.49,289.20 L 614.78,289.76 L 614.48,290.63 L 614.08,291.23 L 613.60,291.57 L 613.22,291.52 L 612.59,290.73 L 611.40,290.32 L 610.77,289.74 L 610.49,290.17 L 610.22,291.43 L 609.87,292.08 L 608.00,292.90 L 606.93,292.89 L 605.52,291.48 L 605.29,290.97 L 605.59,289.61 L 607.87,284.11 L 607.59,284.17 L 606.78,285.08 L 605.19,287.34 L 604.45,288.04 L 603.08,288.24 L 602.42,288.07 L 601.66,288.31 L 600.80,288.95 L 600.26,289.62 L 600.04,290.31 L 600.24,290.41 L 601.54,289.53 L 602.31,289.25 L 602.56,289.60 L 601.69,292.06 L 601.24,294.37 L 600.66,294.99 L 599.66,294.98 L 598.60,295.30 L 598.63,295.93 L 600.82,297.56 L 601.57,297.75 L 602.57,298.31 L 602.77,298.93 L 602.57,300.69 L 602.36,301.39 L 601.96,301.79 L 600.29,301.87 L 599.77,302.10 L 598.74,303.28 L 598.26,304.23 L 598.47,304.29 L 599.37,303.46 L 600.75,302.94 L 602.59,302.73 L 603.93,302.21 L 604.77,301.39 L 605.67,301.52 L 606.63,302.59 L 606.98,303.57 L 606.72,304.46 L 606.06,305.15 L 605.02,305.61 L 604.39,306.23 L 604.18,306.99 L 604.11,308.10 L 604.21,309.55 L 604.71,312.14 L 604.53,312.51 L 604.14,312.74 L 603.54,312.83 L 603.05,313.50 L 602.08,317.08 L 601.66,317.50 L 601.09,317.17 L 600.62,317.26 L 600.24,317.74 L 599.36,318.17 L 597.97,318.52 L 596.76,318.53 L 594.58,317.95 L 593.68,317.48 L 592.94,316.66 L 591.10,317.73 L 590.57,317.36 L 589.22,315.04 L 588.97,315.20 L 588.93,317.81 L 588.63,318.75 L 587.59,320.72 L 587.16,324.01 L 586.97,324.11 L 586.72,323.66 L 585.80,320.81 L 585.37,320.20 L 584.42,321.94 L 584.34,322.56 L 584.76,324.70 L 584.53,325.04 L 582.29,324.02 L 581.76,323.99 L 581.63,324.20 L 582.47,325.83 L 582.42,326.43 L 579.55,329.86 L 578.74,329.79 L 578.21,329.50 L 577.66,329.58 L 575.77,330.89 L 575.23,330.87 L 574.45,330.20 L 574.11,330.25 L 573.96,331.00 L 574.01,332.45 L 573.36,333.87 L 571.12,336.22 L 570.55,337.28 L 570.14,338.71 L 569.79,338.86 L 568.37,338.02 L 566.75,337.50 L 566.54,337.81 L 567.06,338.64 L 566.98,339.17 L 566.30,339.40 L 565.42,339.36 L 564.34,339.06 L 562.87,339.51 L 561.00,340.72 L 559.40,340.74 L 557.11,338.95 L 556.49,338.83 L 556.28,338.31 L 556.66,336.79 L 557.26,335.62 L 557.70,335.08 L 559.76,333.54 L 562.14,332.92 L 563.61,331.97 L 565.37,330.08 L 566.28,328.67 L 568.02,325.07 L 567.86,324.80 L 567.43,324.63 L 563.41,328.15 L 562.80,328.48 L 561.97,328.49 L 558.59,327.34 L 557.87,326.81 L 557.34,325.23 L 558.14,321.55 L 558.72,319.76 L 560.23,316.98 L 562.22,314.00 L 562.87,312.08 L 563.75,307.00 L 563.59,304.72 L 562.99,301.95 L 562.91,300.30 L 563.33,299.75 L 567.93,296.96 L 570.07,294.93 L 574.22,291.84 L 575.40,291.80 L 576.31,292.73 L 577.36,293.46 L 578.54,293.98 L 580.01,293.83 L 581.76,293.00 L 584.63,293.08 L 590.62,294.53 L 591.87,294.54 L 591.90,294.30 L 590.90,293.06 L 586.81,292.59 L 585.06,291.95 L 580.08,288.91 L 578.92,287.69 L 579.32,287.05 L 580.45,286.48 L 580.82,285.97 L 580.93,285.12 L 581.52,283.93 L 582.59,282.39 L 584.26,280.86 L 587.46,278.52 L 586.15,278.53 L 583.77,279.08 L 582.92,279.54 L 581.41,281.15 L 580.85,282.25 L 580.08,284.37 L 579.72,284.79 L 578.06,285.19 L 573.50,285.67 L 572.67,284.65 L 572.23,284.50 L 571.67,284.68 L 567.60,287.59 L 566.15,289.04 L 565.14,290.66 L 563.51,291.89 L 561.28,292.71 L 559.61,293.68 L 557.88,295.55 L 557.32,296.96 L 557.31,297.61 L 557.82,299.65 L 557.38,300.05 L 556.35,300.25 L 554.72,301.66 L 551.30,305.81 L 550.87,307.29 L 550.90,307.80 L 551.51,308.92 L 551.13,309.68 L 550.15,310.88 L 547.96,312.79 L 546.50,313.54 L 545.54,313.59 L 544.62,313.34 L 542.96,312.17 L 541.63,312.12 L 541.56,312.29 L 543.38,313.54 L 545.24,315.16 L 546.42,316.51 L 546.89,317.59 L 546.94,318.71 L 546.55,319.87 L 545.28,321.90 L 544.01,322.52 L 540.73,323.18 L 539.68,323.67 L 539.35,324.04 L 541.62,324.86 L 541.84,325.29 L 541.55,326.97 L 540.95,327.53 L 539.07,328.56 L 537.38,328.87 L 537.12,328.68 L 537.42,327.35 L 537.33,327.03 L 536.69,326.77 L 535.79,327.28 L 533.55,329.23 L 533.31,329.56 L 534.13,330.07 L 533.96,330.51 L 532.74,331.91 L 532.23,332.84 L 531.42,333.79 L 527.75,336.69 L 528.03,337.40 L 527.07,339.92 L 526.53,342.14 L 527.18,343.08 L 530.29,344.18 L 531.80,344.44 L 533.58,345.20 L 536.82,347.24 L 537.91,348.58 L 538.08,349.22 L 537.99,349.91 L 537.61,350.85 L 536.61,352.63 L 534.17,355.27 L 533.06,356.02 L 531.38,356.61 L 530.83,357.04 L 528.66,359.53 L 528.07,360.88 L 528.16,362.05 L 527.75,362.87 L 524.94,364.47 L 525.04,364.76 L 526.06,364.88 L 525.68,366.30 L 525.50,368.28 L 525.01,368.61 L 523.25,368.58 L 521.00,369.33 L 520.84,369.55 L 520.79,370.97 L 514.90,371.93 L 513.57,374.61 L 512.88,375.42 L 510.53,377.34 L 509.09,378.09 L 507.46,378.53 L 506.59,379.18 L 506.49,380.03 L 506.01,380.75 L 504.57,381.93 L 503.84,383.44 L 503.33,383.67 L 500.68,383.96 L 500.15,384.43 L 499.83,386.49 L 499.34,386.54 L 498.42,386.03 L 497.18,386.36 L 494.36,388.60 L 493.72,389.41 L 493.77,389.87 L 494.18,390.33 L 494.79,391.75 L 494.71,392.68 L 493.55,395.25 L 493.16,395.64 L 491.84,396.24 L 491.25,397.66 L 490.06,397.45 L 489.09,397.68 L 488.42,398.62 L 487.71,399.14 L 486.96,399.25 L 485.99,399.98 L 484.81,401.30 L 483.72,402.13 L 482.75,402.47 L 481.81,402.51 L 480.91,402.27 L 480.09,402.39 L 479.34,402.86 L 478.59,403.62 L 477.90,405.86 L 477.13,406.83 L 476.67,406.99 L 475.75,406.78 L 474.38,406.23 L 472.95,406.31 L 470.57,407.56 L 469.77,408.56 L 471.21,408.88 L 471.91,409.23 L 471.87,409.52 L 471.10,409.76 L 469.81,409.66 L 469.02,409.85 L 468.04,410.39 L 465.63,410.88 L 464.70,411.28 L 462.74,413.78 L 462.48,414.36 L 462.71,414.51 L 463.73,414.30 L 464.88,414.82 L 465.46,415.42 L 465.81,416.13 L 466.10,417.47 L 466.32,417.68 L 463.89,419.74 L 463.18,420.64 L 462.73,420.96 L 462.48,420.67 L 462.36,418.18 L 462.22,417.75 L 461.69,417.67 L 461.11,418.41 L 459.76,421.25 L 458.41,422.62 L 448.71,425.65 L 447.26,426.38 L 446.86,427.97 L 446.35,429.32 L 445.63,430.38 L 444.84,431.01 L 444.72,430.50 L 445.13,426.60 L 445.00,425.80 L 444.09,425.22 L 443.67,425.25 L 443.07,425.42 L 442.06,426.18 L 441.46,426.34 L 440.75,426.20 L 439.44,426.92 L 436.27,429.31 L 434.29,429.79 L 433.73,430.29 L 432.78,431.67 L 432.18,432.15 L 431.37,432.12 L 430.35,431.57 L 429.47,431.79 L 428.71,432.79 L 428.01,433.14 L 426.22,432.16 L 425.35,432.60 L 424.13,433.86 L 422.92,434.64 L 421.70,434.95 L 418.62,435.07 L 417.44,434.63 L 417.23,434.21 L 417.48,432.47 L 418.11,431.26 L 418.63,430.72 L 419.29,430.26 L 420.18,430.30 L 421.78,430.88 L 421.64,430.44 L 421.09,429.87 L 419.67,428.83 L 418.23,428.22 L 417.34,428.40 L 416.05,428.92 L 415.14,429.59 L 414.61,430.41 L 413.74,433.19 L 413.33,433.92 L 409.19,438.50 L 407.61,439.86 L 406.24,439.57 L 405.50,440.07 L 404.40,441.20 L 403.45,441.69 L 402.66,441.53 L 402.06,441.21 L 401.68,440.73 L 401.80,440.35 L 402.44,440.06 L 402.36,439.03 L 401.54,437.26 L 400.96,436.27 L 399.66,435.99 L 399.35,436.71 L 399.31,440.58 L 399.13,441.43 L 398.16,442.40 L 395.83,443.32 L 395.16,443.11 L 393.52,440.45 L 391.73,439.71 L 391.50,440.47 L 391.70,442.12 L 391.04,443.53 L 389.51,444.72 L 388.39,445.24 L 387.70,445.10 L 387.79,444.13 L 388.68,442.33 L 389.06,440.78 L 388.93,439.47 L 389.10,438.51 L 389.56,437.89 L 392.27,436.37 L 393.33,436.23 L 393.82,436.78 L 394.50,436.95 L 395.37,436.76 L 395.97,436.24 L 396.30,435.37 L 397.51,434.37 L 399.58,433.23 L 402.07,430.94 L 404.97,427.50 L 408.20,424.62 L 411.77,422.30 L 415.54,420.57 L 422.92,418.41 L 423.44,418.65 L 422.70,419.54 L 423.07,420.20 L 423.76,420.35 L 426.39,420.16 L 427.49,419.64 L 427.73,420.28 L 427.29,421.00 L 425.65,421.60 L 425.63,422.25 L 427.59,425.50 L 428.25,426.03 L 428.85,426.03 L 429.14,425.67 L 429.17,423.48 L 429.98,423.15 L 431.56,423.21 L 432.55,423.60 L 432.96,424.32 L 433.81,424.96 L 435.08,425.53 L 435.92,425.47 L 436.30,424.80 L 435.82,423.90 L 433.47,421.80 L 432.85,420.96 L 432.79,419.86 L 433.28,418.52 L 434.26,416.56 L 435.74,413.96 L 437.02,412.18 L 439.44,410.25 L 441.03,409.33 L 445.10,406.42 L 452.62,403.73 L 454.57,401.74 L 457.17,399.58 L 458.25,399.08 L 458.19,399.99 L 458.46,400.83 L 460.04,401.49 L 461.08,401.75 L 461.58,401.62 L 461.77,400.77 L 461.66,399.19 L 461.71,397.71 L 461.92,396.33 L 462.23,395.24 L 463.44,393.37 L 465.18,391.26 L 467.53,388.82 L 468.97,387.74 L 470.30,387.20 L 471.61,386.15 L 473.91,383.62 L 474.62,383.22 L 476.18,382.78 L 476.73,383.05 L 477.02,383.74 L 477.40,384.18 L 478.94,384.64 L 480.00,384.10 L 479.85,383.78 L 479.02,383.53 L 478.50,383.11 L 478.08,381.49 L 477.11,380.48 L 476.94,379.38 L 477.22,377.70 L 478.31,373.79 L 478.68,369.72 L 479.58,367.43 L 481.18,366.67 L 484.66,366.27 L 482.70,365.11 L 481.95,365.07 L 480.66,364.50 L 480.30,361.93 L 480.41,360.08 L 481.39,357.99 L 484.75,354.54 L 488.34,352.21 L 487.88,351.98 L 487.48,351.22 L 489.30,346.28 L 491.04,341.87 L 488.79,345.59 L 486.23,348.39 L 478.93,351.40 L 473.91,353.95 L 471.56,354.48 L 470.08,353.66 L 469.07,350.86 L 468.46,349.84 L 467.71,348.01 L 468.23,345.73 L 469.03,344.18 L 470.55,344.02 L 472.19,344.90 L 473.66,345.06 L 471.86,343.37 L 469.22,341.81 L 467.96,342.17 L 466.86,344.33 L 465.48,345.77 L 464.41,345.14 L 463.79,344.47 L 464.11,346.37 L 463.06,349.15 L 462.60,351.10 L 463.44,356.38 L 463.06,358.44 L 460.76,359.23 L 459.08,357.38 L 455.84,350.49 L 454.69,348.51 L 452.02,345.16 L 451.02,345.52 L 449.66,346.93 L 448.42,347.24 L 445.49,344.70 L 444.19,342.84 L 443.01,340.62 L 440.78,341.56 L 438.80,342.73 L 436.41,344.68 L 434.97,344.51 L 430.82,345.93 L 430.40,345.93 L 429.73,346.87 L 429.14,347.25 L 428.47,349.14 L 422.94,350.00 L 417.75,348.51 L 419.73,347.68 L 421.89,347.10 L 423.92,345.30 L 423.48,342.52 L 423.51,341.14 L 423.74,339.41 L 425.96,337.21 L 423.95,336.97 L 422.56,337.68 L 421.57,335.71 L 421.44,332.04 L 423.08,330.09 L 423.91,328.53 L 424.72,326.35 L 424.99,324.43 L 424.33,321.02 L 422.18,313.71 L 421.48,308.37 L 419.52,305.32 L 421.82,301.04 L 424.25,297.18 L 426.93,295.66 L 426.77,295.36 L 425.41,295.20 L 424.49,295.33 L 423.53,296.56 L 422.57,297.47 L 419.28,302.35 L 417.26,304.67 L 416.06,305.25 L 417.70,306.48 L 417.86,307.35 L 417.96,309.28 L 417.20,311.52 L 416.57,312.72 L 414.48,312.33 L 412.34,313.92 L 407.60,315.29 L 401.41,315.54 L 398.47,314.95 L 395.75,312.12 L 395.99,310.78 L 396.30,309.62 L 392.55,304.88 L 390.74,300.47 L 388.98,300.08 L 387.63,298.75 L 386.10,296.77 L 386.49,295.46 L 386.94,294.57 L 385.94,293.72 L 384.52,293.53 L 382.95,292.78 L 388.13,288.39 L 390.18,285.20 L 391.46,284.91 L 392.92,285.71 L 394.83,287.43 L 396.54,288.32 L 397.09,289.07 L 397.57,290.39 L 396.54,292.30 L 395.66,293.61 L 396.52,293.36 L 399.13,291.52 L 401.11,289.85 L 401.88,290.18 L 402.35,290.60 L 402.98,292.75 L 403.84,294.96 L 406.69,293.41 L 408.41,291.20 L 407.42,289.97 L 406.10,289.13 L 402.64,287.76 L 403.62,287.20 L 405.91,287.63 L 406.87,287.10 L 406.10,286.05 L 405.08,285.06 L 401.57,287.30 L 395.95,286.25 L 392.27,284.00 L 388.31,283.60 L 387.74,283.18 L 387.13,282.19 L 389.68,280.56 L 391.42,279.71 L 391.62,279.08 L 390.73,278.84 L 388.94,279.08 L 388.34,278.02 L 388.74,276.43 L 388.44,276.52 L 387.62,277.29 L 386.75,276.68 L 386.06,275.81 L 386.62,275.11 L 387.64,274.20 L 387.30,273.97 L 386.51,274.07 L 385.54,275.33 L 385.50,276.48 L 385.20,278.10 L 383.90,278.17 L 382.87,277.78 L 382.39,276.01 L 382.23,272.38 L 380.26,271.06 L 380.07,269.20 L 381.83,267.19 L 381.45,265.92 L 380.10,265.27 L 378.25,266.10 L 377.72,264.95 L 377.80,263.81 L 378.05,262.20 L 378.53,262.12 L 378.85,262.51 L 382.27,262.24 L 382.66,261.87 L 380.34,260.03 L 379.89,258.48 L 381.10,257.88 L 383.03,258.17 L 385.88,257.84 L 385.02,256.12 L 384.94,255.25 L 384.96,253.86 L 385.83,251.65 L 389.91,246.96 L 393.72,243.11 L 394.84,242.26 L 396.32,241.96 L 397.53,242.60 L 398.72,243.78 L 399.04,243.42 L 398.65,242.96 L 398.38,241.06 L 400.36,240.67 L 401.79,238.82 L 401.97,238.25 L 400.65,238.89 L 399.18,240.07 L 399.11,238.62 L 399.34,235.36 L 400.40,232.41 L 401.05,231.12 L 402.28,230.00 L 405.30,229.98 L 405.77,230.32 L 405.98,229.73 L 404.53,227.53 L 405.50,226.15 L 406.26,225.48 L 409.98,224.84 L 411.84,225.53 L 414.04,227.32 L 415.17,229.29 L 414.83,230.16 L 414.40,230.63 L 413.58,231.10 L 413.24,231.52 L 413.32,231.90 L 414.52,231.01 L 416.41,229.99 L 417.28,230.69 L 417.89,231.81 L 418.73,231.92 L 421.51,231.44 L 422.99,230.71 L 424.97,228.56 L 427.36,227.31 L 431.06,222.86 L 432.22,220.98 L 433.30,220.81 L 434.21,221.11 L 434.66,222.83 L 435.56,223.43 L 441.06,223.70 L 443.94,223.27 L 446.05,221.90 L 448.35,219.44 L 449.71,217.77 L 450.51,215.49 L 450.13,212.38 L 449.67,209.79 L 449.35,203.93 L 447.15,199.84 L 445.41,198.50 L 444.21,198.52 L 445.35,196.20 L 447.81,196.75 L 449.48,196.46 L 450.92,195.44 L 451.44,194.60 L 452.28,192.87 L 452.27,190.92 L 452.04,189.84 L 451.27,188.59 L 450.40,186.79 L 449.72,186.15 L 449.09,186.11 L 445.60,189.13 L 443.73,188.96 L 442.41,188.17 L 440.97,189.94 L 437.37,191.20 L 435.34,192.66 L 431.40,196.43 L 430.29,198.22 L 429.20,198.16 L 428.94,194.35 L 425.79,190.29 L 424.52,191.33 L 424.96,192.53 L 425.67,193.44 L 426.99,193.98 L 426.25,194.97 L 425.59,196.33 L 424.41,194.79 L 422.25,192.48 L 419.88,191.10 L 413.28,190.16 L 408.64,191.43 L 408.31,190.95 L 407.92,190.71 L 407.12,191.06 L 406.67,191.81 L 406.11,192.24 L 405.20,192.27 L 403.48,191.66 L 400.27,189.81 L 392.89,186.55 L 391.09,185.04 L 389.89,182.06 L 390.28,180.28 L 391.20,179.67 L 391.63,177.09 L 390.29,176.11 L 388.04,171.81 L 387.27,170.01 L 387.55,169.89 L 387.99,170.43 L 388.95,170.95 L 391.55,170.95 L 392.89,168.73 L 394.88,168.42 L 396.51,169.09 L 396.26,168.36 L 395.92,167.77 L 391.74,165.67 L 391.06,165.92 L 383.61,162.11 L 378.23,157.01 L 377.89,156.18 L 377.69,154.46 L 378.87,153.07 L 379.87,152.51 L 379.72,153.39 L 379.66,154.27 L 383.62,153.07 L 386.02,150.87 L 389.59,151.15 L 390.55,150.60 L 391.92,149.43 L 393.95,147.36 L 396.37,146.54 L 398.07,145.71 L 400.12,145.42 L 401.54,146.85 L 402.01,147.10 L 404.95,147.89 L 406.02,147.59 L 406.50,147.31 L 406.92,146.80 L 404.38,144.24 L 404.89,143.17 L 405.41,142.45 L 409.23,140.73 L 411.97,140.43 L 413.35,140.73 L 417.90,138.39 L 420.25,137.90 L 424.48,138.00 L 427.91,138.39 L 428.66,139.62 L 426.87,139.10 L 426.03,139.17 L 426.54,139.63 L 427.07,140.53 L 426.72,141.50 L 425.12,144.29 L 424.83,146.67 L 423.97,147.33 L 423.08,148.30 L 426.09,152.27 L 431.57,153.32 L 434.66,153.13 L 436.25,154.40 L 437.64,154.83 L 441.65,154.83 L 444.52,155.95 L 445.80,155.82 L 449.17,151.02 L 450.33,150.34 L 451.38,151.37 L 452.81,152.27 L 453.84,151.86 L 454.48,153.27 L 454.42,150.46 L 454.00,149.37 L 449.79,146.95 L 446.71,147.54 L 445.92,146.35 L 446.49,144.27 L 444.02,138.65 L 442.86,137.43 L 441.33,137.17 L 440.79,135.25 L 440.46,132.84 L 441.91,132.07 L 443.16,131.80 L 444.16,132.69 L 445.01,135.91 L 446.12,136.51 L 445.38,139.51 L 446.48,142.51 L 449.47,145.53 L 452.24,144.88 L 454.11,145.12 L 455.17,145.80 L 457.66,148.45 L 459.03,148.89 L 463.54,148.11 L 463.82,145.81 L 463.62,144.10 L 462.70,142.95 L 459.75,142.84 L 457.65,140.88 L 455.66,141.13 L 451.77,143.36 L 450.09,142.10 L 449.13,140.56 L 447.49,138.91 L 447.61,136.18 L 449.51,133.27 L 450.80,131.93 L 449.94,130.73 L 447.54,129.66 L 443.11,129.87 L 443.05,128.79 L 443.22,127.66 L 441.16,129.64 L 439.41,128.93 L 436.94,128.82 L 431.86,126.07 L 430.34,123.36 L 429.85,121.28 L 429.28,115.69 L 428.02,112.05 L 417.69,98.56 L 412.71,94.68 L 410.69,91.01 L 409.19,89.91 L 407.68,89.28 L 405.88,87.85 L 407.49,86.89 L 408.51,86.65 L 407.27,87.76 L 407.94,88.24 L 409.26,87.72 L 410.07,86.95 L 411.77,83.31 L 413.87,77.73 L 414.07,75.41 L 420.48,77.11 L 424.89,77.51 L 426.42,77.25 L 432.04,77.30 L 433.57,76.89 L 436.51,75.35 L 440.14,72.37 L 443.46,68.22 L 444.06,67.05 L 444.18,67.39 L 444.44,67.23 L 444.98,65.55 L 445.92,61.53 L 447.77,57.89 L 454.38,49.90 L 457.32,46.76 L 458.35,45.29 L 459.35,44.25 L 459.81,45.42 L 460.06,45.78 L 460.16,46.32 L 459.62,46.49 L 458.65,47.51 L 457.40,48.11 L 457.07,48.46 L 457.76,48.46 L 459.89,47.90 L 461.16,47.05 L 467.04,45.89 L 470.44,43.20 L 470.64,42.54 L 475.54,39.22 L 476.15,39.42 L 476.82,39.95 L 475.32,42.33 L 476.14,43.06 L 475.06,45.97 L 476.71,46.18 L 476.95,47.59 L 477.15,46.41 L 477.29,44.71 L 477.58,43.06 L 477.94,41.93 L 479.04,42.55 L 481.74,41.55 L 478.62,41.11 L 477.00,38.23 L 475.96,38.11 L 479.81,34.47 L 483.18,32.35 L 483.89,32.45 L 484.19,32.93 L 484.21,33.66 L 483.49,34.07 L 482.74,34.87 L 482.98,35.65 L 483.43,35.79 L 485.01,35.30 L 485.75,34.58 L 488.98,34.90 L 489.97,34.42 L 490.24,33.89 L 494.44,34.06 L 495.23,33.72 L 497.97,31.75 L 500.52,29.31 L 501.70,27.96 L 503.76,24.47 L 505.48,22.21 L 508.21,20.00 L 508.83,20.31 L 507.96,20.74 L 507.32,21.70 L 508.09,23.04 L 513.57,25.94 L 514.97,26.12 L 515.48,27.76 L 514.97,29.30 L 513.47,31.00 L 510.48,32.68 L 511.36,33.38 L 511.89,34.98 L 512.76,35.20 L 514.20,34.64 L 515.33,33.70 L 517.69,30.59 L 518.44,28.84 L 518.99,28.41 L 520.88,28.86 L 521.95,29.78 L 523.16,31.41 L 522.69,32.96 L 522.17,33.83 L 523.76,35.06 L 525.55,35.33 L 527.24,36.32 L 529.64,34.32 L 531.50,33.89 L 533.26,33.94 L 535.53,32.83 L 539.41,34.25 L 540.38,33.85 L 541.93,34.07 L 543.60,34.92 L 544.21,35.86 L 542.50,37.93 L 542.26,40.03 L 542.91,40.88 L 544.04,41.00 L 544.22,42.21 L 544.93,42.50 L 548.46,42.29 L 548.21,42.88 L 548.07,43.59 L 547.02,45.18 L 553.39,45.81 L 554.20,44.91 L 555.50,44.50 L 558.21,43.18 L 559.29,43.64 L 560.59,44.78 L 561.74,44.97 L 562.79,44.66 L 565.16,42.77 L 568.01,42.49 L 569.22,42.97 L 570.43,42.63 L 574.32,44.31 L 575.71,44.43 L 577.78,46.84 L 578.74,46.84 L 579.72,45.65 L 580.65,45.59 L 581.67,46.55 L 583.20,46.73 L 584.06,48.31 L 584.87,48.83 L 590.70,49.45 L 593.45,48.57 L 597.57,48.22 L 599.65,48.75 L 601.71,48.39 L 605.50,50.77 L 607.37,50.96 L 607.81,51.57 L 613.06,51.51 L 614.63,49.76 L 617.69,48.87 L 620.29,47.18 L 621.88,46.93 L 623.78,46.92 L 624.47,46.65 L 624.88,46.02 L 629.77,47.35 L 632.76,49.32 L 634.21,50.91 L 640.04,52.44 L 641.87,53.56 L 643.26,54.93 L 643.91,54.97 L 644.25,54.42 L 646.15,54.17 L 646.90,54.24 L 648.51,61.75 L 650.11,69.27 L 651.72,76.78 L 653.32,84.29 L 654.92,91.81 L 656.51,99.32 L 658.11,106.84 L 659.70,114.36 L 661.28,121.88 L 662.87,129.40 L 664.45,136.92 L 666.03,144.44 L 667.60,151.96 L 669.18,159.48 L 670.75,167.01 L 672.32,174.53 L 673.88,182.06 L 675.45,189.58 L 677.01,197.11 L 678.56,204.64 L 680.12,212.16 L 681.67,219.69 L 683.22,227.22 L 684.76,234.74 L 686.30,242.27 L 687.84,249.80 L 689.38,257.33 L 690.91,264.86 L 692.45,272.38 L 693.97,279.91 L 695.50,287.44 L 697.02,294.97 L 700.29,295.39 L 703.53,295.80 L 704.02,293.51 L 707.62,294.40 L 710.77,295.16 L 712.19,292.97 L 713.72,290.59 L 716.33,289.84 L 719.24,289.00 L 721.18,288.43 L 721.57,290.08 L 721.47,292.98 L 721.39,295.41 L 723.73,297.29 L 726.25,297.97 L 728.61,298.60 L 730.29,301.52 L 733.17,303.38 L 735.37,304.79 L 737.49,306.13 L 740.52,308.05 L 742.65,309.38 L 745.50,311.15 L 747.20,312.20 L 748.54,314.75 L 750.15,317.81 L 750.17,319.87 L 751.33,319.90 L 752.88,317.17 L 754.50,315.30 L 756.50,312.98 L 757.84,311.42 L 760.87,310.52 L 761.43,306.87 L 760.19,302.33 L 761.74,301.97 L 762.46,301.11 L 762.49,299.66 L 761.03,298.11 L 763.66,296.44 L 765.56,295.23 L 768.03,292.69 L 770.43,290.21 L 772.17,291.06 L 773.88,291.87 L 777.41,294.00 L 777.80,294.65 L 778.03,296.08 L 778.18,297.53 L 780.96,300.90 L 781.56,301.18 L 783.06,301.30 L 785.05,302.08 L 786.10,302.96 L 788.97,303.99 L 789.58,304.60 L 790.17,305.71 L 790.86,306.61 L 791.52,307.20 L 792.26,308.10 L 793.66,309.00 L 796.01,309.74 L 797.65,310.25 L 799.95,310.97 L 802.71,313.05 L 805.12,314.85 L 807.76,316.53 L 808.07,318.48 L 810.92,320.69 L 814.14,323.63 L 816.76,326.32 L 818.46,327.73 L 820.66,329.88 L 823.37,332.49 L 826.45,335.46 L 828.67,337.28 L 831.65,339.87 L 833.24,341.48 L 833.05,343.02 L 832.82,344.94 L 835.52,344.86 L 837.39,344.80 L 837.59,346.77 L 837.85,349.37 L 840.09,349.63 L 841.62,349.81 L 841.79,351.16 L 842.99,352.33 L 843.93,354.64 L 846.22,353.64 L 847.24,353.19 L 849.01,353.72 L 851.34,354.42 L 853.65,355.02 L 855.63,355.53 L 857.94,355.40 L 860.85,355.36 L 862.80,356.79 L 865.44,356.71 L 867.30,359.04 L 870.37,358.97 L 871.72,357.69 L 872.70,358.55 L 873.62,359.63 L 874.33,361.15 L 874.75,362.75 Z"></path>
    <path class="region" d="M 386.10,441.12 L 386.96,445.62 L 387.47,446.55 L 388.35,447.14 L 389.60,447.79 L 390.30,448.54 L 390.86,449.60 L 390.89,450.06 L 386.98,447.74 L 384.02,449.88 L 383.19,450.09 L 375.77,449.08 L 374.23,449.31 L 373.15,449.98 L 371.10,452.01 L 370.10,452.77 L 369.11,453.15 L 367.09,453.43 L 364.79,452.96 L 363.63,452.46 L 363.16,451.26 L 362.94,449.00 L 363.05,448.40 L 363.45,447.42 L 365.73,446.34 L 366.53,445.70 L 369.95,441.25 L 370.82,440.70 L 371.66,440.67 L 373.86,441.38 L 376.00,440.26 L 380.46,438.72 L 381.41,438.61 L 384.40,439.01 L 385.16,439.47 L 385.70,440.17 L 386.10,441.12 Z"></path>
    <path class="region" d="M 832.03,387.83 L 832.56,388.43 L 832.73,388.87 L 831.20,391.21 L 831.27,391.57 L 831.12,392.76 L 830.80,393.27 L 830.39,394.64 L 829.30,396.32 L 828.39,392.64 L 826.29,391.02 L 827.41,389.48 L 828.46,389.47 L 830.08,389.07 L 831.34,387.64 L 832.03,387.83 Z"></path>
    <path class="region" d="M 863.65,389.66 L 866.22,392.35 L 866.70,393.46 L 865.45,394.36 L 864.31,394.60 L 863.62,394.43 L 863.29,393.96 L 863.07,392.20 L 862.02,391.50 L 861.08,391.47 L 860.54,392.31 L 859.94,390.71 L 860.09,389.35 L 859.24,387.89 L 858.82,386.70 L 858.88,386.25 L 859.63,386.02 L 861.58,386.69 L 863.65,389.66 Z"></path>
    <path class="region" d="M 844.06,368.00 L 845.17,372.23 L 844.54,372.19 L 844.02,372.37 L 843.14,373.33 L 841.93,373.47 L 841.25,373.19 L 840.87,372.73 L 840.67,371.43 L 839.81,370.97 L 837.62,371.45 L 836.74,371.43 L 835.88,370.28 L 835.21,368.62 L 835.33,367.87 L 836.24,367.06 L 836.38,364.71 L 836.74,364.28 L 837.11,359.60 L 838.07,359.58 L 840.43,361.52 L 843.55,364.42 L 844.06,368.00 Z"></path>
    <path class="region" d="M 865.14,377.65 L 865.62,380.55 L 865.64,383.69 L 864.69,385.74 L 863.53,385.79 L 862.34,384.86 L 861.66,385.19 L 860.81,385.22 L 860.04,384.37 L 859.99,382.93 L 859.29,382.06 L 859.21,383.08 L 858.83,384.12 L 857.51,385.78 L 857.03,388.20 L 856.93,389.70 L 855.76,388.52 L 854.17,385.31 L 853.63,383.90 L 854.11,381.31 L 854.97,378.70 L 853.17,372.47 L 857.02,367.61 L 857.53,367.60 L 859.94,369.29 L 862.78,371.85 L 863.73,373.12 L 864.64,375.62 L 865.14,377.65 Z"></path>
    <path class="region" d="M 819.54,351.60 L 820.69,352.08 L 820.92,351.09 L 821.85,350.82 L 823.78,350.98 L 825.15,351.73 L 826.13,352.79 L 826.42,353.52 L 826.80,355.28 L 827.49,356.97 L 827.72,357.89 L 827.73,358.71 L 827.54,359.43 L 827.14,359.65 L 825.30,358.54 L 822.87,356.24 L 821.43,355.77 L 821.48,356.07 L 822.06,356.77 L 823.49,357.97 L 823.95,358.82 L 824.98,359.71 L 825.55,360.45 L 826.08,361.50 L 826.38,362.47 L 826.46,363.36 L 826.32,363.99 L 825.96,364.37 L 823.54,364.92 L 822.32,365.94 L 820.59,366.17 L 820.03,365.80 L 819.53,365.06 L 818.78,363.11 L 817.47,360.40 L 816.88,358.17 L 815.22,356.53 L 813.95,355.63 L 812.33,354.97 L 811.15,354.18 L 811.12,353.25 L 812.23,352.20 L 814.43,351.64 L 819.54,351.60 Z"></path>
    <path class="region" d="M 843.53,401.94 L 843.99,402.15 L 844.27,401.79 L 844.56,400.71 L 845.65,400.53 L 846.48,400.57 L 847.06,400.78 L 847.24,402.16 L 847.74,404.33 L 847.56,405.22 L 847.48,406.41 L 845.82,406.29 L 844.20,405.36 L 841.75,403.64 L 840.26,402.30 L 839.96,401.62 L 839.20,401.31 L 837.11,398.84 L 835.72,396.80 L 834.59,396.89 L 833.07,396.70 L 832.16,395.62 L 832.17,394.42 L 833.88,393.25 L 837.61,395.10 L 838.42,396.14 L 839.88,397.19 L 840.70,399.06 L 841.46,399.64 L 843.53,401.94 Z"></path>
    <path class="region" d="M 627.31,302.32 L 627.68,303.01 L 630.13,302.53 L 630.86,302.57 L 631.18,302.87 L 630.90,303.40 L 630.03,304.15 L 627.36,305.61 L 625.25,307.36 L 624.94,307.25 L 624.34,305.69 L 623.85,305.08 L 623.49,304.20 L 623.45,303.86 L 623.80,303.18 L 624.52,302.17 L 625.07,301.77 L 627.31,302.32 Z"></path>
    <path class="region" d="M 611.62,320.84 L 610.20,321.36 L 609.78,320.62 L 610.36,318.62 L 610.87,317.47 L 611.29,317.17 L 612.74,314.83 L 614.42,313.07 L 615.87,310.59 L 617.24,307.12 L 617.42,305.86 L 618.19,305.65 L 619.58,306.31 L 620.50,307.36 L 620.22,308.30 L 616.40,313.44 L 616.10,314.09 L 615.87,315.71 L 615.57,316.30 L 615.02,316.62 L 614.67,317.35 L 614.53,318.52 L 614.05,319.16 L 613.24,319.30 L 612.71,319.67 L 612.45,320.27 L 611.62,320.84 Z"></path>
    <path class="region" d="M 611.01,304.08 L 611.08,304.77 L 610.73,305.47 L 611.24,306.65 L 610.77,308.80 L 610.64,310.15 L 610.36,311.02 L 610.02,311.37 L 609.64,311.22 L 609.52,310.77 L 609.66,310.02 L 608.81,310.12 L 608.38,308.33 L 608.80,307.71 L 608.89,306.91 L 608.90,306.38 L 609.23,304.01 L 609.42,303.83 L 609.53,304.37 L 609.73,304.52 L 610.00,304.26 L 610.34,303.19 L 610.52,303.05 L 611.01,304.08 Z"></path>
    <path class="region" d="M 606.58,294.60 L 604.98,294.97 L 604.21,294.71 L 604.07,294.36 L 604.26,293.01 L 604.18,292.45 L 604.98,292.17 L 605.97,292.71 L 606.30,293.33 L 606.58,294.60 Z"></path>
    <path class="region" d="M 543.12,395.31 L 541.32,396.18 L 540.99,396.15 L 539.89,397.87 L 539.04,398.62 L 537.89,397.28 L 538.16,395.18 L 539.13,393.78 L 544.13,394.18 L 544.52,394.56 L 544.53,394.89 L 544.17,395.17 L 543.12,395.31 Z"></path>
    <path class="region" d="M 549.75,359.50 L 549.35,359.67 L 548.33,358.89 L 547.65,358.06 L 548.07,357.40 L 549.98,355.99 L 550.91,355.94 L 551.29,356.15 L 551.46,356.57 L 551.40,357.20 L 551.00,358.00 L 549.75,359.50 Z"></path>
    <path class="region" d="M 539.57,376.33 L 539.18,377.07 L 538.81,376.88 L 538.02,376.04 L 536.41,374.81 L 535.68,373.96 L 535.63,373.60 L 536.18,373.19 L 538.06,374.18 L 538.86,375.09 L 539.57,376.33 Z"></path>
    <path class="region" d="M 505.76,429.30 L 505.16,430.12 L 504.04,430.03 L 503.42,429.74 L 503.23,429.01 L 505.01,426.87 L 505.41,426.59 L 505.71,426.68 L 505.83,427.59 L 505.76,429.30 Z"></path>
    <path class="region" d="M 518.99,413.42 L 517.99,414.03 L 517.66,413.82 L 517.62,413.30 L 517.86,412.49 L 518.33,411.68 L 519.88,410.14 L 521.43,409.13 L 522.21,409.20 L 522.48,409.85 L 521.51,411.20 L 518.99,413.42 Z"></path>
    <path class="region" d="M 525.90,411.40 L 525.19,411.45 L 524.11,410.76 L 524.26,409.93 L 525.79,408.94 L 527.33,409.10 L 527.45,409.65 L 527.38,410.28 L 527.25,410.64 L 526.76,411.02 L 525.90,411.40 Z"></path>
    <path class="region" d="M 428.85,437.67 L 429.08,437.71 L 429.56,437.56 L 430.67,436.19 L 430.99,436.15 L 430.95,436.61 L 430.35,438.01 L 430.94,440.03 L 431.57,441.04 L 431.47,441.36 L 429.58,441.85 L 428.24,441.22 L 427.49,441.31 L 426.76,441.92 L 426.38,441.12 L 426.43,437.51 L 426.60,436.89 L 427.47,435.73 L 428.50,435.27 L 428.91,435.48 L 429.21,436.01 L 429.24,436.54 L 428.85,437.67 Z"></path>
    <path class="region" d="M 403.32,447.03 L 402.95,447.11 L 402.01,446.18 L 401.71,445.53 L 401.55,444.57 L 403.82,443.51 L 404.26,443.55 L 404.56,444.35 L 404.56,444.95 L 403.77,446.56 L 403.32,447.03 Z"></path>
    <path class="region" d="M 397.99,458.11 L 396.60,458.50 L 395.28,457.72 L 394.22,456.46 L 394.26,455.14 L 396.81,456.35 L 397.33,456.82 L 397.99,458.11 Z"></path>
    <path class="region" d="M 440.54,443.70 L 439.58,444.19 L 439.23,444.89 L 438.50,445.14 L 437.86,445.67 L 435.65,448.17 L 434.74,448.58 L 435.90,446.38 L 436.12,445.67 L 436.18,445.19 L 436.04,443.44 L 436.61,443.57 L 437.12,443.25 L 438.21,441.81 L 439.07,441.76 L 440.15,440.02 L 440.66,439.92 L 440.88,440.19 L 440.38,441.26 L 441.17,442.35 L 440.86,443.32 L 440.54,443.70 Z"></path>
    <path class="region" d="M 346.67,458.72 L 346.02,459.07 L 345.54,459.09 L 345.23,458.76 L 343.60,458.78 L 343.33,458.53 L 342.90,456.87 L 343.00,456.06 L 343.39,455.49 L 344.19,455.05 L 345.42,454.75 L 346.51,455.06 L 348.21,456.84 L 348.98,457.84 L 349.07,458.39 L 348.30,458.74 L 346.67,458.72 Z"></path>
    <path class="region" d="M 351.23,457.80 L 350.54,457.87 L 350.42,457.58 L 350.54,456.43 L 350.34,454.53 L 351.42,454.06 L 352.05,454.01 L 352.26,454.33 L 352.73,455.80 L 353.36,456.28 L 353.83,456.67 L 352.85,456.91 L 351.23,457.80 Z"></path>
    <path class="region" d="M 434.23,352.22 L 433.18,352.53 L 432.14,352.20 L 431.59,349.53 L 432.23,349.52 L 433.75,347.96 L 436.85,346.90 L 437.59,346.82 L 434.23,352.22 Z"></path>
    <path class="region" d="M 289.62,272.63 L 291.82,275.09 L 293.59,275.43 L 294.55,277.22 L 294.80,278.51 L 292.97,277.10 L 289.99,276.27 L 286.99,271.67 L 285.79,270.47 L 286.69,268.68 L 288.50,268.17 L 288.52,270.96 L 289.62,272.63 Z"></path>
    <path class="region" d="M 300.88,365.09 L 299.15,365.92 L 297.97,365.14 L 297.80,364.17 L 297.88,363.80 L 301.86,363.77 L 300.88,365.09 Z"></path>
    <path class="region" d="M 281.16,477.34 L 280.67,478.30 L 280.36,478.62 L 278.09,477.48 L 276.45,477.28 L 276.42,476.63 L 276.69,476.12 L 279.39,475.93 L 280.41,476.17 L 280.98,476.77 L 281.16,477.34 Z"></path>
    <path class="region" d="M 263.40,479.98 L 262.21,480.53 L 262.00,480.15 L 262.07,479.11 L 262.82,478.48 L 264.93,477.24 L 266.00,477.86 L 266.25,478.40 L 266.06,479.03 L 265.43,479.75 L 264.78,480.03 L 264.11,479.86 L 263.40,479.98 Z"></path>
    <path class="region" d="M 234.51,480.34 L 233.26,480.38 L 232.12,479.62 L 233.07,478.46 L 233.86,477.93 L 235.23,477.40 L 236.48,478.17 L 237.25,479.58 L 234.51,480.34 Z"></path>
    <path class="region" d="M 303.10,380.52 L 304.83,381.48 L 305.94,381.41 L 306.78,381.90 L 306.80,382.54 L 304.91,383.47 L 304.28,383.22 L 302.78,381.17 L 303.10,380.52 Z"></path>
    <path class="region" d="M 171.85,473.18 L 170.39,474.29 L 169.90,473.37 L 170.30,471.27 L 171.01,470.96 L 172.04,472.94 L 171.85,473.18 Z"></path>
    <path class="region" d="M 177.66,469.40 L 177.05,470.01 L 175.81,468.70 L 175.49,467.87 L 175.61,467.19 L 176.41,466.27 L 177.61,466.68 L 178.17,467.37 L 178.55,468.41 L 178.58,468.99 L 177.66,469.40 Z"></path>
    <path class="region" d="M 157.99,470.21 L 157.44,470.37 L 156.54,470.31 L 154.31,469.16 L 152.86,468.71 L 151.23,468.29 L 149.89,468.27 L 149.87,467.58 L 150.09,467.10 L 155.66,467.67 L 157.09,467.41 L 158.13,466.78 L 159.38,465.34 L 160.09,465.04 L 160.40,465.19 L 160.89,466.12 L 160.33,466.90 L 159.43,467.42 L 158.97,468.05 L 157.99,470.21 Z"></path>
    <path class="region" d="M 95.41,438.77 L 94.29,438.76 L 94.23,437.48 L 94.44,436.86 L 95.23,436.44 L 95.96,437.26 L 96.25,438.10 L 95.41,438.77 Z"></path>
    <path class="region" d="M 103.09,457.74 L 100.47,456.61 L 96.79,450.33 L 94.63,447.88 L 93.73,445.84 L 94.51,445.84 L 97.33,448.26 L 99.09,451.56 L 99.98,453.60 L 101.19,455.54 L 102.82,456.82 L 103.09,457.74 Z"></path>
    <path class="region" d="M 30.09,393.18 L 29.14,392.75 L 28.97,391.62 L 26.12,389.64 L 26.83,389.05 L 28.28,389.44 L 30.89,389.30 L 32.45,390.43 L 31.43,391.32 L 30.09,393.18 Z"></path>
    <path class="region" d="M 795.10,349.81 L 797.06,352.22 L 798.54,354.11 L 800.05,356.45 L 802.89,361.40 L 804.08,363.23 L 804.60,364.28 L 805.60,367.13 L 805.59,367.81 L 805.39,368.50 L 805.56,369.34 L 806.57,371.44 L 807.59,374.78 L 807.81,376.77 L 807.51,377.18 L 806.37,376.85 L 805.29,376.08 L 804.39,375.19 L 801.99,372.27 L 801.11,370.83 L 800.75,369.71 L 800.73,368.83 L 801.04,368.18 L 801.44,366.57 L 801.27,366.39 L 800.75,366.88 L 799.55,367.43 L 798.14,366.69 L 797.12,366.38 L 796.73,364.38 L 796.34,363.90 L 794.84,365.01 L 794.05,364.65 L 793.70,363.97 L 793.42,362.87 L 793.46,361.82 L 794.35,358.93 L 794.06,358.53 L 793.27,358.67 L 792.02,358.14 L 790.78,355.59 L 789.25,354.37 L 788.65,354.70 L 788.42,359.49 L 787.97,360.65 L 786.07,361.87 L 786.16,360.53 L 786.04,359.39 L 784.39,356.32 L 784.01,355.06 L 784.24,353.99 L 785.57,353.18 L 786.18,352.40 L 786.53,351.33 L 786.42,350.40 L 786.88,347.76 L 787.27,347.15 L 788.66,346.77 L 792.32,348.45 L 793.32,348.56 L 795.10,349.81 Z"></path>
    <path class="region" d="M 792.90,328.21 L 796.44,327.73 L 798.85,326.82 L 802.26,329.85 L 804.59,332.43 L 806.07,334.29 L 807.18,336.19 L 808.42,337.96 L 808.45,338.26 L 806.72,337.35 L 804.94,334.95 L 804.13,334.05 L 803.51,333.73 L 802.70,332.89 L 800.93,330.62 L 800.67,329.90 L 800.04,329.37 L 799.46,329.24 L 798.93,329.53 L 798.82,329.85 L 799.45,331.61 L 800.50,333.45 L 804.28,337.00 L 806.68,338.93 L 807.26,339.64 L 808.18,341.82 L 807.79,343.07 L 809.31,344.86 L 809.40,345.27 L 809.33,345.73 L 807.26,347.41 L 806.27,351.96 L 804.57,354.97 L 803.58,355.67 L 802.94,355.46 L 802.18,354.75 L 801.54,353.69 L 801.02,352.27 L 801.34,351.17 L 801.08,346.06 L 800.64,344.50 L 798.54,342.80 L 797.13,341.30 L 795.92,338.98 L 793.18,332.71 L 792.19,330.73 L 791.16,329.15 L 790.09,327.97 L 789.13,326.59 L 788.30,325.03 L 788.24,324.34 L 789.64,324.86 L 791.72,326.83 L 792.90,328.21 Z"></path>
    <path class="region" d="M 778.38,330.33 L 780.98,332.23 L 781.16,332.79 L 781.25,334.60 L 780.35,335.38 L 780.84,335.97 L 781.75,336.25 L 782.18,335.66 L 783.51,332.70 L 783.99,332.01 L 784.35,331.85 L 786.99,331.83 L 789.46,332.31 L 790.36,333.02 L 791.18,334.48 L 791.62,338.07 L 790.03,339.21 L 789.18,339.40 L 788.14,339.17 L 787.05,340.79 L 788.51,341.34 L 792.20,340.45 L 793.88,342.03 L 794.63,343.42 L 794.65,346.38 L 792.36,346.26 L 790.07,345.23 L 785.68,344.12 L 784.76,344.28 L 784.27,344.85 L 784.50,346.26 L 785.37,349.19 L 784.80,351.01 L 781.64,351.21 L 779.85,349.31 L 777.79,346.08 L 772.57,343.05 L 771.24,342.52 L 769.10,340.42 L 769.15,338.26 L 769.01,337.06 L 769.70,336.54 L 770.59,335.33 L 770.70,333.23 L 772.14,334.50 L 773.91,335.61 L 773.54,334.20 L 773.87,332.90 L 775.21,332.55 L 775.77,332.14 L 776.35,330.84 L 777.45,329.93 L 778.38,330.33 Z"></path>
    <path class="region" d="M 822.08,369.13 L 824.87,368.80 L 827.26,367.95 L 828.41,368.71 L 829.30,369.61 L 829.94,370.52 L 830.34,371.45 L 830.50,372.15 L 830.44,372.97 L 830.58,373.20 L 836.06,373.97 L 839.11,375.69 L 840.43,376.69 L 841.31,377.62 L 843.17,380.06 L 846.22,382.58 L 847.59,383.19 L 848.50,383.94 L 848.18,384.09 L 846.54,383.88 L 842.80,382.78 L 842.58,382.95 L 842.69,384.21 L 842.56,385.40 L 842.10,386.37 L 842.74,386.40 L 845.03,385.09 L 847.78,386.47 L 848.71,386.56 L 849.99,387.80 L 850.21,388.36 L 850.13,389.64 L 849.94,390.21 L 850.16,390.48 L 850.79,390.44 L 852.96,389.32 L 853.55,389.72 L 854.68,394.18 L 855.54,395.67 L 855.78,396.40 L 855.84,397.46 L 856.11,398.28 L 856.60,399.04 L 856.88,399.78 L 856.95,401.94 L 856.45,402.48 L 855.46,402.85 L 854.48,402.57 L 852.82,401.28 L 850.88,399.05 L 850.34,398.82 L 848.81,398.92 L 848.45,398.69 L 847.53,398.95 L 846.55,398.09 L 846.16,396.66 L 845.14,395.41 L 844.99,394.74 L 844.29,394.68 L 843.91,395.26 L 844.64,396.58 L 844.69,397.78 L 843.43,397.70 L 840.44,394.84 L 837.43,392.74 L 836.39,392.35 L 836.35,391.46 L 837.25,390.68 L 838.10,390.43 L 838.11,389.89 L 835.49,387.77 L 835.30,386.98 L 835.49,385.40 L 834.52,385.09 L 832.48,386.25 L 831.62,386.22 L 830.65,385.33 L 829.98,384.50 L 828.04,384.95 L 827.36,385.30 L 825.69,384.26 L 824.84,383.53 L 824.92,382.99 L 825.79,381.81 L 826.48,381.70 L 828.02,382.16 L 828.51,381.96 L 829.40,380.39 L 829.25,379.28 L 829.92,378.11 L 829.48,377.25 L 828.47,375.88 L 827.19,375.83 L 825.14,377.52 L 823.55,379.60 L 822.56,379.32 L 822.12,378.51 L 823.55,375.43 L 824.10,373.82 L 823.67,373.11 L 822.65,372.34 L 821.81,369.86 L 822.08,369.13 Z"></path>
    <path class="region" d="M 812.29,358.35 L 813.72,359.81 L 814.96,359.25 L 816.09,360.33 L 817.25,362.11 L 817.25,363.51 L 816.59,363.41 L 816.18,364.35 L 816.54,366.90 L 817.48,369.27 L 818.03,371.75 L 818.05,374.47 L 818.40,376.17 L 818.26,376.76 L 817.99,377.04 L 817.43,376.72 L 816.72,376.57 L 816.38,378.21 L 815.44,378.52 L 813.70,375.59 L 812.78,370.09 L 813.99,368.53 L 812.64,367.38 L 810.20,366.33 L 810.08,365.34 L 807.80,363.12 L 807.53,362.50 L 807.08,360.19 L 807.83,357.76 L 809.51,356.83 L 811.03,357.29 L 811.95,357.79 L 812.29,358.35 Z"></path>
    <path class="region" d="M 550.78,362.75 L 551.28,362.95 L 551.77,361.37 L 552.13,361.31 L 553.80,362.59 L 554.79,362.27 L 555.49,363.87 L 556.07,364.01 L 556.60,363.79 L 556.93,363.90 L 556.87,365.62 L 555.72,367.39 L 555.18,367.85 L 554.38,367.43 L 554.09,367.27 L 553.55,366.51 L 553.14,365.55 L 552.90,365.54 L 552.02,366.71 L 552.06,367.27 L 552.46,368.11 L 552.42,368.64 L 551.43,368.92 L 550.44,368.82 L 549.26,369.58 L 548.97,369.13 L 548.76,367.83 L 548.39,367.99 L 547.86,369.59 L 547.26,370.62 L 546.15,371.48 L 545.92,371.89 L 545.09,371.96 L 543.88,372.51 L 543.12,372.43 L 538.60,370.76 L 537.54,370.14 L 541.18,366.12 L 543.09,364.56 L 544.21,364.62 L 545.33,365.08 L 545.92,364.99 L 545.93,363.24 L 544.87,361.94 L 544.90,361.40 L 547.18,360.46 L 548.04,360.57 L 548.99,361.00 L 549.91,361.73 L 550.78,362.75 Z"></path>
    <path class="region" d="M 310.62,470.82 L 305.33,472.52 L 303.37,474.18 L 301.78,475.84 L 300.63,476.69 L 299.92,476.72 L 299.07,477.06 L 297.21,478.04 L 296.51,478.06 L 290.78,480.02 L 290.41,479.99 L 290.84,479.22 L 292.64,478.42 L 293.88,477.60 L 295.39,476.11 L 296.16,475.61 L 296.55,474.78 L 297.02,473.02 L 297.45,472.42 L 298.81,471.33 L 299.75,470.78 L 300.84,470.76 L 302.87,471.46 L 303.88,470.98 L 304.26,470.52 L 303.84,469.93 L 303.89,469.09 L 304.33,467.71 L 305.19,466.60 L 306.49,465.75 L 308.12,465.23 L 310.08,465.02 L 311.42,465.29 L 313.57,467.10 L 313.81,467.77 L 312.95,468.93 L 312.37,470.07 L 310.62,470.82 Z"></path>
    <path class="region" d="M 334.10,460.84 L 334.52,462.20 L 335.81,461.65 L 336.84,460.75 L 337.74,459.50 L 338.27,459.04 L 338.69,459.87 L 340.11,461.17 L 338.49,462.42 L 335.47,464.19 L 334.32,465.54 L 334.14,466.19 L 336.76,466.18 L 337.45,466.39 L 337.80,466.99 L 337.00,467.48 L 335.52,467.77 L 334.12,468.62 L 331.00,469.95 L 329.66,471.30 L 328.30,471.65 L 326.59,471.45 L 323.42,471.86 L 321.43,472.44 L 320.87,472.86 L 320.25,472.99 L 319.58,472.82 L 318.76,473.09 L 317.80,473.79 L 317.07,474.05 L 315.97,473.91 L 315.34,474.13 L 314.71,473.99 L 313.21,472.58 L 312.90,471.89 L 314.66,471.01 L 315.84,470.84 L 317.55,471.01 L 319.42,470.24 L 323.08,469.46 L 324.29,468.87 L 325.50,466.19 L 326.36,465.87 L 326.99,464.83 L 328.84,465.24 L 329.46,466.67 L 329.72,466.90 L 329.90,466.81 L 330.17,465.82 L 331.26,465.30 L 330.81,464.67 L 329.21,463.67 L 328.00,463.11 L 327.16,462.97 L 326.56,462.47 L 326.19,461.59 L 326.10,460.78 L 326.30,460.03 L 326.88,459.27 L 327.86,458.49 L 328.88,458.15 L 330.92,458.16 L 332.78,457.88 L 333.72,457.97 L 334.37,458.37 L 334.10,460.84 Z"></path>
    <path class="region" d="M 216.69,478.68 L 219.43,480.64 L 223.25,481.67 L 224.56,482.34 L 224.50,482.63 L 221.96,482.32 L 221.17,481.93 L 218.89,481.84 L 217.43,481.50 L 214.30,479.95 L 211.67,479.52 L 211.04,479.17 L 210.39,478.46 L 209.70,477.38 L 209.81,476.87 L 210.69,476.93 L 212.73,478.32 L 213.07,478.04 L 215.14,477.99 L 216.69,478.68 Z"></path>
    <path class="region" d="M 198.57,475.65 L 189.98,473.91 L 188.95,472.78 L 190.33,472.80 L 191.89,473.08 L 195.36,472.95 L 199.49,473.20 L 202.84,472.95 L 205.68,472.99 L 206.80,471.90 L 204.74,470.49 L 204.46,469.81 L 205.72,469.55 L 206.90,468.94 L 209.33,468.56 L 210.82,470.49 L 210.97,471.51 L 210.48,472.51 L 209.77,473.49 L 207.93,473.52 L 207.51,474.01 L 207.92,475.94 L 204.05,476.27 L 198.57,475.65 Z"></path>
    <path class="region" d="M 167.77,469.63 L 167.57,470.49 L 169.36,471.02 L 169.77,471.65 L 169.22,473.28 L 168.83,473.66 L 168.53,473.67 L 168.01,473.09 L 167.02,473.66 L 163.04,474.50 L 162.42,472.99 L 159.89,474.07 L 162.82,469.94 L 164.60,469.81 L 165.35,469.49 L 165.68,468.09 L 167.17,466.09 L 168.69,466.76 L 169.09,467.95 L 168.85,468.55 L 167.77,469.63 Z"></path>
    <path class="region" d="M 146.23,467.62 L 145.60,468.30 L 145.24,468.14 L 143.69,465.99 L 143.56,465.41 L 144.99,465.23 L 145.52,464.87 L 145.61,464.16 L 145.05,462.91 L 143.82,461.11 L 143.51,460.03 L 144.09,459.67 L 144.99,459.66 L 147.48,460.56 L 148.30,462.51 L 149.13,463.40 L 151.37,464.64 L 149.93,464.78 L 149.02,465.10 L 147.35,467.03 L 146.23,467.62 Z"></path>
    <path class="region" d="M 112.45,446.60 L 110.97,446.68 L 109.68,445.73 L 109.28,444.45 L 109.83,443.36 L 112.17,442.92 L 113.83,445.44 L 112.45,446.60 Z"></path>
    <path class="region" d="M 77.94,431.65 L 76.22,432.04 L 75.67,430.54 L 75.72,430.01 L 78.41,429.18 L 80.01,429.48 L 80.91,429.13 L 82.51,427.22 L 83.61,427.64 L 83.98,428.13 L 83.29,429.05 L 81.76,430.24 L 81.24,431.34 L 77.94,431.65 Z"></path>
    <path class="region" d="M 25.28,370.87 L 27.26,372.98 L 29.07,373.54 L 30.50,375.93 L 31.96,379.47 L 31.18,379.55 L 30.41,379.42 L 29.79,379.05 L 27.61,378.28 L 26.57,377.58 L 23.80,377.90 L 22.14,375.60 L 22.48,373.12 L 21.00,371.62 L 20.00,370.12 L 23.38,369.95 L 25.28,370.87 Z"></path>
  </g>
</svg>
