<?xml version="1.0" encoding="UTF-8" standalone="no"?>
<svg xmlns="http://www.w3.org/2000/svg" viewBox="0 0 900 700" width="900" height="700"
     role="img" aria-label="Caribbean map (Lambert azimuthal equal-area)">
  <defs>
    <style type="text/css"><![CDATA[
      .ocean { fill: #ffffff; }
      .country { fill: #b9b9b9; stroke: #ffffff; stroke-width: 0.75; vector-effect: non-scaling-stroke; }
    ]]></style>
  </defs>
  <rect class="ocean" x="0" y="0" width="900" height="700"></rect>
  <g id="countries">
    <path class="country" id="VI" data-name="U.S. Virgin Is." d="M 684.23,325.98 L 681.74,326.39 L 678.21,324.88 L 680.92,324.16 L 682.70,324.48 L 684.23,325.98 Z M 690.38,324.88 L 688.21,325.90 L 686.71,325.83 L 686.13,325.51 L 687.26,324.38 L 690.38,324.88 Z M 687.62,344.79 L 690.49,346.24 L 693.89,346.10 L 690.40,347.80 L 683.61,348.22 L 683.66,345.72 L 687.62,344.79 Z"></path>
    <path class="country" id="PR" data-name="Puerto Rico" d="M 641.19,323.44 L 642.24,324.11 L 643.25,323.97 L 642.39,322.55 L 643.13,322.53 L 649.56,323.21 L 653.73,324.56 L 657.99,325.13 L 658.42,330.03 L 655.23,332.11 L 653.16,334.23 L 651.51,336.80 L 647.03,339.88 L 641.54,340.94 L 637.88,341.13 L 636.51,341.08 L 635.15,340.62 L 632.40,341.18 L 628.93,340.00 L 626.01,340.41 L 620.17,340.27 L 618.02,341.44 L 615.93,341.75 L 613.87,341.60 L 612.12,341.15 L 607.79,341.30 L 605.94,340.38 L 606.55,334.78 L 606.55,332.24 L 605.43,330.18 L 604.23,328.90 L 603.35,327.37 L 605.02,326.30 L 606.37,324.78 L 606.75,322.53 L 608.26,321.94 L 610.04,321.63 L 618.31,322.45 L 639.18,322.42 L 640.37,322.56 L 641.19,323.44 Z M 665.12,334.63 L 662.51,334.93 L 660.79,334.71 L 660.18,333.68 L 663.32,332.59 L 667.04,332.60 L 669.18,333.11 L 669.46,333.49 L 665.12,334.63 Z M 583.25,338.61 L 582.94,338.65 L 582.62,338.62 L 582.48,338.53 L 582.25,338.21 L 581.29,337.70 L 581.05,337.22 L 581.26,336.70 L 581.64,336.49 L 583.58,336.39 L 583.78,336.44 L 584.17,336.78 L 584.19,337.03 L 584.00,337.28 L 583.68,337.91 L 583.54,338.06 L 583.43,338.23 L 583.39,338.50 L 583.25,338.61 Z"></path>
    <path class="country" id="AI" data-name="Anguilla" d="M 745.95,327.10 L 740.74,329.14 L 740.91,328.11 L 745.04,325.45 L 746.60,325.55 L 745.95,327.10 Z"></path>
    <path class="country" id="KY" data-name="Cayman Is." d="M 133.53,286.66 L 134.56,287.40 L 135.93,287.05 L 136.36,286.33 L 141.45,287.14 L 142.14,288.65 L 138.25,288.49 L 136.45,289.35 L 135.57,289.50 L 132.23,289.09 L 131.93,285.67 L 132.88,285.35 L 133.53,286.66 Z M 180.21,276.18 L 179.88,276.37 L 178.83,276.17 L 176.33,277.51 L 175.28,277.37 L 175.63,276.88 L 176.15,276.43 L 176.74,276.10 L 177.28,275.99 L 178.99,275.78 L 179.80,275.77 L 180.34,276.13 L 180.21,276.18 Z M 185.37,276.28 L 183.80,276.75 L 182.61,276.49 L 185.39,275.14 L 186.11,274.68 L 186.72,274.44 L 187.34,274.46 L 188.12,274.80 L 188.11,275.02 L 185.37,276.28 Z"></path>
    <path class="country" id="VG" data-name="British Virgin Is." d="M 699.05,320.63 L 698.20,320.92 L 697.63,320.88 L 697.42,320.38 L 697.95,318.96 L 701.33,318.66 L 699.05,320.63 Z M 692.52,323.08 L 689.92,323.31 L 689.12,322.90 L 690.55,321.75 L 693.28,321.51 L 694.09,321.77 L 692.52,323.08 Z M 702.22,310.73 L 702.74,311.89 L 702.45,311.88 L 700.51,311.15 L 699.05,311.15 L 698.44,310.96 L 698.09,310.53 L 701.03,310.35 L 702.22,310.73 Z"></path>
    <path class="country" id="TC" data-name="Turks and Caicos Is." d="M 455.98,209.48 L 455.85,209.96 L 454.00,208.60 L 450.44,208.59 L 449.88,206.73 L 451.23,206.43 L 455.75,207.08 L 456.78,208.69 L 455.98,209.48 Z M 448.82,206.84 L 448.24,207.21 L 446.34,206.00 L 446.07,205.02 L 445.39,204.97 L 444.26,204.10 L 444.54,202.96 L 447.13,202.91 L 448.17,206.06 L 448.82,206.84 Z M 433.98,206.45 L 437.72,208.39 L 439.98,208.11 L 440.16,208.52 L 438.94,208.97 L 438.64,209.33 L 435.02,209.84 L 433.89,209.74 L 433.67,208.42 L 433.98,206.45 Z"></path>
    <path class="country" id="MS" data-name="Montserrat" d="M 777.12,377.99 L 777.03,380.09 L 774.73,379.56 L 774.59,377.73 L 775.56,375.80 L 776.07,375.59 L 777.12,377.99 Z"></path>
    <path class="country" id="TT" data-name="Trinidad and Tobago" d="M 833.86,571.97 L 832.00,572.42 L 832.16,571.00 L 835.34,568.39 L 840.30,566.47 L 841.58,566.33 L 840.96,568.55 L 833.86,571.97 Z M 826.58,609.32 L 821.05,611.60 L 806.44,612.83 L 800.35,612.41 L 795.71,613.20 L 804.02,608.46 L 804.95,606.58 L 808.53,606.06 L 809.53,605.46 L 810.35,595.86 L 809.79,593.61 L 809.03,592.39 L 807.54,591.56 L 804.23,590.50 L 803.66,589.86 L 805.67,588.71 L 810.03,587.90 L 813.26,586.58 L 820.03,586.00 L 823.27,584.81 L 828.81,584.22 L 826.27,588.75 L 825.06,590.45 L 825.72,594.37 L 825.20,597.08 L 826.07,600.43 L 827.82,602.56 L 826.83,604.81 L 826.81,608.12 L 826.58,609.32 Z"></path>
    <path class="country" id="VC" data-name="St. Vin. and Gren." d="M 816.32,502.82 L 815.35,503.43 L 812.73,501.19 L 812.90,498.41 L 814.34,496.81 L 815.73,495.84 L 817.20,495.66 L 817.82,497.92 L 817.62,501.16 L 816.32,502.82 Z M 814.83,508.69 L 814.30,509.11 L 814.55,509.09 L 814.31,509.37 L 814.12,509.12 L 813.84,508.97 L 813.49,508.92 L 813.10,508.95 L 813.09,508.69 L 813.60,508.82 L 814.37,508.62 L 814.36,508.33 L 814.12,508.09 L 814.01,507.91 L 814.28,507.62 L 815.20,506.95 L 815.59,506.60 L 815.64,506.73 L 815.66,506.86 L 815.72,506.97 L 815.86,507.09 L 815.40,507.59 L 814.83,508.69 Z M 811.61,519.47 L 811.26,519.51 L 810.95,519.40 L 811.02,519.29 L 811.41,519.18 L 811.58,518.94 L 811.50,518.63 L 811.50,518.29 L 811.80,518.06 L 812.04,518.02 L 812.15,518.15 L 812.23,518.47 L 812.06,518.73 L 811.87,518.94 L 811.79,519.25 L 811.61,519.47 Z"></path>
    <path class="country" id="LC" data-name="Saint Lucia" d="M 824.72,478.82 L 822.99,482.62 L 819.15,480.51 L 818.58,477.62 L 818.82,475.83 L 820.93,472.34 L 822.60,470.05 L 823.80,469.25 L 824.68,472.12 L 824.72,478.82 Z"></path>
    <path class="country" id="KN" data-name="St. Kitts and Nevis" d="M 763.55,365.18 L 761.91,366.01 L 760.43,365.06 L 760.63,362.59 L 761.99,362.45 L 763.40,363.48 L 763.55,365.18 Z M 760.05,361.17 L 759.21,361.76 L 757.57,359.66 L 755.08,359.19 L 752.89,358.01 L 752.83,357.74 L 752.83,357.09 L 753.21,356.32 L 754.27,355.70 L 757.06,357.31 L 758.44,359.45 L 759.68,360.40 L 760.05,361.17 Z"></path>
    <path class="country" id="AW" data-name="Aruba" d="M 517.32,537.48 L 517.45,538.50 L 515.84,537.97 L 513.68,535.81 L 511.53,534.19 L 512.04,532.42 L 512.58,531.82 L 514.73,533.43 L 516.87,536.48 L 517.32,537.48 Z"></path>
    <path class="country" id="CW" data-name="Curaçao" d="M 557.08,550.77 L 555.28,551.31 L 548.62,548.01 L 543.07,542.57 L 542.86,539.69 L 544.26,539.92 L 545.71,541.00 L 547.95,544.87 L 554.40,547.33 L 557.08,550.77 Z"></path>
    <path class="country" id="JM" data-name="Jamaica" d="M 268.94,323.62 L 272.98,325.00 L 277.17,325.77 L 278.98,325.86 L 280.68,326.31 L 284.44,329.45 L 287.50,331.19 L 299.15,335.20 L 302.92,341.69 L 303.61,343.71 L 300.55,344.83 L 296.71,345.15 L 293.05,345.13 L 289.70,343.82 L 288.25,342.85 L 284.75,342.30 L 285.64,341.46 L 284.09,341.02 L 282.13,341.06 L 280.63,343.48 L 278.97,345.39 L 275.90,345.12 L 274.76,343.42 L 273.12,344.13 L 271.78,345.32 L 270.09,349.87 L 267.64,347.52 L 264.96,345.53 L 261.55,344.64 L 254.62,344.31 L 251.38,343.58 L 248.77,339.61 L 247.74,338.46 L 245.04,337.37 L 242.46,332.82 L 241.50,332.18 L 234.16,330.98 L 232.73,328.49 L 233.26,326.30 L 235.81,323.68 L 237.03,322.95 L 241.10,323.20 L 245.01,322.52 L 246.77,321.42 L 248.57,320.71 L 262.60,323.09 L 265.85,323.21 L 268.94,323.62 Z"></path>
    <path class="country" id="HT" data-name="Haiti" d="M 452.22,281.66 L 452.94,282.72 L 454.48,289.83 L 454.63,292.11 L 453.10,295.55 L 453.33,296.91 L 456.64,300.07 L 456.70,301.22 L 456.31,302.37 L 453.49,305.39 L 451.32,307.45 L 452.01,309.81 L 453.78,312.05 L 454.00,313.93 L 453.46,316.41 L 450.76,319.50 L 449.35,320.60 L 445.32,320.74 L 444.87,321.18 L 446.88,324.19 L 449.15,327.58 L 452.86,330.22 L 453.68,332.71 L 452.80,335.07 L 452.65,340.88 L 449.82,338.06 L 446.69,335.70 L 444.82,334.79 L 442.88,334.20 L 428.02,334.49 L 426.35,334.89 L 425.05,335.64 L 423.66,336.01 L 419.57,336.71 L 415.51,336.84 L 406.02,334.89 L 402.27,333.88 L 398.49,333.23 L 394.15,333.40 L 389.81,333.94 L 386.34,335.28 L 383.72,337.67 L 383.22,339.91 L 381.68,340.47 L 378.21,336.86 L 375.03,334.28 L 371.39,332.33 L 363.91,329.52 L 362.56,327.85 L 361.98,325.84 L 365.10,319.71 L 368.55,318.63 L 370.45,318.44 L 374.70,319.25 L 378.84,320.70 L 382.62,321.65 L 388.48,322.07 L 391.66,323.61 L 414.20,326.12 L 418.47,326.87 L 420.14,326.62 L 421.60,325.71 L 422.82,324.05 L 424.22,322.80 L 430.91,322.54 L 432.31,321.99 L 433.30,320.26 L 433.27,318.45 L 429.35,316.02 L 423.22,310.69 L 417.85,304.41 L 420.19,302.31 L 419.31,298.46 L 420.20,294.89 L 421.50,291.40 L 416.18,288.37 L 409.91,285.36 L 401.18,284.36 L 398.50,283.59 L 397.13,281.34 L 398.41,278.34 L 401.25,276.70 L 404.49,275.70 L 407.81,275.01 L 415.82,274.20 L 423.76,275.19 L 430.62,278.30 L 437.59,280.73 L 446.40,281.54 L 450.37,282.42 L 452.22,281.66 Z M 418.02,314.78 L 417.42,317.26 L 408.89,314.26 L 402.00,310.49 L 402.31,308.47 L 405.84,308.02 L 409.22,309.29 L 414.20,311.80 L 418.02,314.78 Z M 422.88,270.37 L 424.22,271.20 L 423.71,272.19 L 420.36,271.56 L 416.91,270.41 L 415.77,270.69 L 415.08,270.55 L 413.07,269.45 L 414.85,268.63 L 416.68,268.36 L 418.68,268.43 L 422.88,270.37 Z"></path>
    <path class="country" id="GD" data-name="Grenada" d="M 799.58,544.27 L 797.29,544.53 L 798.15,543.18 L 798.25,540.95 L 799.34,538.18 L 801.13,536.25 L 802.99,536.64 L 802.55,542.65 L 799.58,544.27 Z"></path>
    <path class="country" id="MF" data-name="St-Martin" d="M 745.88,332.52 L 742.14,332.70 L 742.38,331.91 L 744.07,330.96 L 745.35,330.98 L 745.88,331.26 L 745.88,332.52 Z"></path>
    <path class="country" id="BL" data-name="St-Barthélemy" d="M 752.20,339.02 L 751.70,339.09 L 751.29,338.81 L 750.91,338.30 L 750.68,337.78 L 750.71,337.47 L 751.01,337.60 L 753.22,337.83 L 753.00,338.23 L 752.65,338.68 L 752.20,339.02 Z"></path>
    <path class="country" id="DO" data-name="Dominican Rep." d="M 452.65,340.88 L 452.80,335.07 L 453.68,332.71 L 452.86,330.22 L 449.15,327.58 L 446.88,324.19 L 444.87,321.18 L 445.32,320.74 L 449.35,320.60 L 450.76,319.50 L 453.46,316.41 L 454.00,313.93 L 453.78,312.05 L 452.01,309.81 L 451.32,307.45 L 453.49,305.39 L 456.31,302.37 L 456.70,301.22 L 456.64,300.07 L 453.33,296.91 L 453.10,295.55 L 454.63,292.11 L 454.48,289.83 L 452.94,282.72 L 452.22,281.66 L 453.68,281.06 L 454.64,278.95 L 455.92,277.06 L 457.62,276.04 L 459.55,275.40 L 463.40,275.44 L 468.73,277.07 L 470.24,277.03 L 475.34,275.51 L 479.57,274.66 L 483.56,275.58 L 485.19,276.85 L 488.50,278.86 L 490.15,279.47 L 495.36,279.38 L 496.78,279.57 L 501.19,282.89 L 504.88,284.20 L 507.02,284.24 L 510.84,282.90 L 512.74,282.92 L 514.96,285.79 L 515.44,289.89 L 517.31,293.62 L 520.13,295.98 L 533.91,294.78 L 537.02,296.71 L 535.99,298.35 L 534.05,299.25 L 527.49,298.96 L 524.62,299.19 L 524.06,300.82 L 524.07,302.33 L 527.92,302.63 L 531.70,303.34 L 535.55,304.49 L 539.47,305.26 L 543.87,305.73 L 548.21,306.53 L 555.49,309.35 L 563.60,315.92 L 565.77,317.40 L 567.22,319.48 L 566.60,322.08 L 563.83,326.38 L 562.23,327.78 L 559.89,328.66 L 558.30,330.42 L 556.80,333.42 L 555.84,333.69 L 554.72,333.59 L 552.76,331.94 L 551.34,329.38 L 547.44,327.02 L 542.85,327.41 L 536.06,326.08 L 531.98,326.83 L 527.88,327.05 L 523.68,326.37 L 519.47,326.17 L 515.27,327.13 L 511.21,328.73 L 509.71,329.73 L 507.12,332.18 L 505.74,333.09 L 495.81,334.39 L 492.93,332.64 L 490.26,330.24 L 486.43,329.94 L 480.91,331.84 L 477.44,332.54 L 476.04,333.36 L 475.63,334.28 L 475.63,337.66 L 474.86,339.72 L 469.48,347.52 L 466.45,353.01 L 465.20,354.71 L 463.74,355.09 L 461.07,351.94 L 459.36,350.81 L 457.25,350.24 L 456.36,348.56 L 456.39,346.18 L 455.83,343.87 L 454.53,342.06 L 452.65,340.88 Z"></path>
    <path class="country" id="DM" data-name="Dominica" d="M 809.04,429.11 L 805.91,430.06 L 804.23,424.04 L 801.79,419.73 L 802.03,416.94 L 802.38,415.87 L 807.13,417.31 L 808.69,419.29 L 809.85,424.67 L 809.04,429.11 Z"></path>
    <path class="country" id="CU" data-name="Cuba" d="M 126.11,151.16 L 134.47,153.28 L 141.34,153.19 L 144.67,152.41 L 144.31,153.39 L 147.18,155.99 L 148.27,156.21 L 152.77,155.21 L 164.36,155.34 L 165.51,156.08 L 167.41,158.55 L 170.29,160.16 L 173.28,161.42 L 176.46,161.88 L 179.68,161.52 L 182.66,161.91 L 186.28,164.39 L 187.44,164.72 L 190.82,164.24 L 189.73,166.30 L 195.23,169.52 L 199.08,175.53 L 201.98,178.06 L 205.07,180.34 L 207.69,181.91 L 210.68,182.73 L 219.84,182.82 L 222.00,183.08 L 223.90,183.99 L 225.73,184.39 L 226.81,184.12 L 244.16,193.85 L 249.61,198.89 L 252.96,201.52 L 260.29,205.41 L 263.26,206.31 L 264.85,205.87 L 264.57,205.06 L 262.46,202.97 L 262.16,202.22 L 264.95,202.93 L 269.88,207.19 L 271.23,208.75 L 273.72,210.23 L 276.24,211.32 L 274.97,212.91 L 272.89,212.99 L 268.93,212.20 L 272.01,214.93 L 272.49,216.87 L 273.96,217.07 L 276.22,215.03 L 277.67,213.29 L 283.12,218.04 L 286.07,220.22 L 285.26,221.42 L 284.97,222.63 L 288.37,221.59 L 289.64,221.75 L 290.86,222.43 L 292.15,224.44 L 295.28,224.96 L 298.45,224.98 L 304.85,226.77 L 310.86,230.23 L 316.59,231.04 L 322.38,231.27 L 325.27,233.09 L 326.47,235.46 L 325.03,237.10 L 324.18,238.82 L 326.30,241.00 L 321.57,241.81 L 320.88,243.08 L 321.09,244.47 L 322.01,245.25 L 324.72,244.64 L 328.60,245.31 L 334.74,245.96 L 338.87,245.61 L 347.21,247.20 L 349.74,248.02 L 354.66,250.83 L 356.93,252.67 L 361.79,257.59 L 366.02,259.55 L 369.70,260.06 L 371.00,259.76 L 372.16,260.30 L 373.18,260.99 L 374.16,263.13 L 373.58,265.36 L 371.44,267.15 L 370.25,268.45 L 364.97,268.54 L 357.59,269.04 L 350.43,270.90 L 346.92,272.41 L 345.31,273.42 L 341.54,274.32 L 341.30,273.49 L 341.39,272.46 L 340.44,270.52 L 339.56,272.24 L 338.14,273.47 L 335.76,274.51 L 327.09,274.41 L 323.63,272.89 L 320.08,271.83 L 307.08,270.50 L 303.95,270.52 L 295.22,271.39 L 286.45,271.74 L 282.77,272.31 L 279.13,273.22 L 272.09,272.98 L 263.73,273.88 L 255.38,273.83 L 260.98,266.00 L 272.48,258.64 L 274.64,257.04 L 276.21,254.96 L 276.62,253.37 L 276.17,251.99 L 273.57,249.50 L 273.08,247.69 L 272.32,246.51 L 268.46,245.38 L 264.54,244.66 L 260.40,244.51 L 251.73,243.40 L 247.10,243.19 L 243.24,241.41 L 236.96,235.34 L 233.99,233.60 L 232.47,232.23 L 231.32,230.68 L 230.13,222.05 L 229.01,217.87 L 227.19,214.21 L 224.32,211.37 L 221.24,210.33 L 209.15,212.18 L 206.38,211.72 L 203.70,210.82 L 185.88,204.48 L 178.59,201.08 L 175.63,199.42 L 173.15,197.14 L 170.66,193.47 L 167.81,190.16 L 167.76,191.44 L 167.25,192.25 L 152.15,191.88 L 149.79,191.02 L 148.30,190.08 L 147.28,188.75 L 146.62,186.14 L 145.31,183.91 L 144.72,186.18 L 143.85,188.26 L 141.77,189.33 L 139.45,189.40 L 136.82,186.44 L 124.66,185.18 L 123.61,184.65 L 119.77,181.69 L 116.58,178.08 L 120.05,177.07 L 127.16,175.88 L 128.74,174.91 L 129.71,173.61 L 129.20,171.56 L 127.90,170.04 L 126.52,169.11 L 124.97,168.47 L 122.89,168.12 L 95.88,166.15 L 94.24,167.14 L 91.66,169.22 L 86.66,171.78 L 83.28,174.55 L 81.99,176.01 L 80.43,177.01 L 76.97,178.64 L 73.92,181.29 L 70.38,182.33 L 68.55,181.43 L 66.69,181.31 L 65.29,181.92 L 63.85,182.15 L 56.88,182.02 L 55.79,182.67 L 54.64,184.64 L 53.22,188.52 L 52.05,189.75 L 48.52,190.01 L 45.12,190.86 L 38.06,194.15 L 36.27,194.57 L 36.86,191.84 L 36.73,189.13 L 34.84,188.90 L 32.63,189.19 L 30.76,189.81 L 27.25,191.57 L 25.51,191.95 L 24.00,190.81 L 24.43,189.52 L 35.99,185.49 L 37.27,185.21 L 39.23,185.72 L 41.19,185.69 L 42.81,184.44 L 41.47,177.91 L 42.52,173.60 L 45.37,170.42 L 50.93,165.69 L 53.54,164.18 L 79.77,155.25 L 82.41,154.88 L 99.08,153.79 L 101.65,153.20 L 109.52,150.51 L 117.65,149.70 L 126.11,151.16 Z M 259.43,199.92 L 258.05,200.96 L 256.64,199.35 L 255.71,199.15 L 254.44,198.49 L 252.00,196.67 L 251.46,194.85 L 253.54,194.79 L 256.16,195.19 L 260.71,196.36 L 260.24,198.38 L 259.43,199.92 Z M 248.18,187.78 L 247.49,188.35 L 245.78,186.97 L 243.24,186.31 L 241.82,184.21 L 240.42,183.37 L 240.34,182.62 L 242.72,182.21 L 244.35,182.48 L 246.13,184.11 L 247.08,187.01 L 248.18,187.78 Z M 228.92,177.65 L 233.36,178.57 L 234.92,178.18 L 236.41,178.10 L 237.97,178.47 L 240.05,181.48 L 238.11,181.78 L 236.58,181.72 L 235.48,181.15 L 231.47,180.86 L 228.86,179.91 L 227.44,179.13 L 226.77,178.21 L 228.92,177.65 Z M 252.79,193.50 L 251.71,193.57 L 248.51,191.99 L 247.59,190.72 L 248.79,189.12 L 249.10,187.33 L 249.55,187.23 L 249.99,189.41 L 252.44,190.42 L 252.57,190.90 L 254.02,192.79 L 252.79,193.50 Z M 98.96,205.96 L 95.80,207.65 L 89.16,209.89 L 85.68,209.77 L 82.23,208.56 L 79.96,206.20 L 78.73,203.93 L 78.92,202.90 L 80.99,204.78 L 82.83,205.76 L 84.42,205.28 L 85.58,204.41 L 82.51,197.15 L 82.77,195.67 L 85.85,191.99 L 93.43,193.64 L 94.73,194.41 L 95.63,196.91 L 97.21,198.93 L 98.88,204.18 L 98.96,205.96 Z M 205.71,172.77 L 205.72,173.70 L 200.17,170.87 L 197.86,168.06 L 196.91,167.40 L 198.50,167.42 L 204.68,172.11 L 205.71,172.77 Z"></path>
    <path class="country" id="BB" data-name="Barbados" d="M 873.89,502.10 L 872.96,502.86 L 869.83,501.64 L 868.66,500.01 L 868.24,494.61 L 870.09,493.98 L 873.86,498.03 L 876.00,499.45 L 873.89,502.10 Z"></path>
    <path class="country" id="BS" data-name="Bahamas" d="M 262.78,118.95 L 262.80,119.76 L 259.53,121.87 L 261.78,123.54 L 264.10,120.16 L 265.73,123.02 L 266.48,128.30 L 266.29,129.21 L 266.42,130.00 L 266.72,131.02 L 266.75,132.48 L 264.81,137.02 L 258.45,136.33 L 258.46,132.46 L 257.50,131.68 L 256.24,126.10 L 254.32,124.25 L 251.74,119.62 L 253.39,118.50 L 255.51,118.96 L 256.62,118.45 L 259.60,118.12 L 261.43,117.56 L 262.78,118.95 Z M 278.79,61.12 L 278.11,61.41 L 275.49,57.80 L 273.31,56.70 L 276.87,54.32 L 278.45,52.23 L 278.59,47.55 L 279.53,45.02 L 279.33,42.80 L 280.18,40.56 L 279.24,37.99 L 276.44,35.89 L 271.06,27.69 L 262.15,25.44 L 257.50,25.19 L 260.11,24.00 L 262.46,24.24 L 266.07,25.13 L 270.40,25.65 L 272.97,28.09 L 275.39,31.30 L 277.64,32.64 L 278.55,33.47 L 278.41,34.37 L 278.76,35.24 L 281.71,36.80 L 284.65,39.25 L 285.28,46.20 L 281.08,49.35 L 279.95,59.35 L 278.79,61.12 Z M 411.11,229.59 L 410.04,232.17 L 406.52,237.08 L 398.73,238.27 L 390.15,238.42 L 389.51,237.07 L 389.33,235.88 L 389.98,234.04 L 389.92,233.31 L 389.58,232.57 L 392.72,231.80 L 394.78,229.53 L 398.03,229.17 L 402.06,230.81 L 404.24,230.88 L 407.48,229.13 L 410.09,225.32 L 411.63,225.82 L 411.11,229.59 Z M 260.64,102.72 L 260.40,106.98 L 260.63,110.19 L 260.26,111.31 L 256.70,113.33 L 255.76,114.49 L 252.44,115.58 L 250.39,117.18 L 249.51,114.43 L 247.65,112.68 L 247.45,109.81 L 245.94,110.72 L 243.85,110.05 L 240.45,107.76 L 238.37,104.74 L 241.48,104.35 L 242.04,106.19 L 244.58,104.05 L 244.08,102.84 L 243.64,102.68 L 242.94,100.45 L 246.85,94.84 L 247.80,91.16 L 246.40,85.15 L 247.96,84.82 L 252.01,87.05 L 253.78,89.17 L 253.72,91.99 L 255.37,94.24 L 257.68,99.55 L 260.64,102.72 Z M 239.92,30.68 L 243.69,31.92 L 245.74,31.85 L 247.00,31.18 L 252.64,31.68 L 257.25,30.80 L 257.85,32.69 L 257.69,33.66 L 247.94,34.22 L 238.90,36.62 L 233.93,38.29 L 231.62,38.40 L 229.92,37.35 L 224.32,31.44 L 225.86,32.07 L 230.05,35.45 L 232.77,34.98 L 235.38,32.96 L 235.84,31.38 L 235.50,30.61 L 236.75,28.13 L 239.92,30.68 Z M 273.74,92.34 L 270.10,92.96 L 267.55,92.15 L 266.91,91.55 L 268.05,90.62 L 270.51,89.88 L 274.42,89.93 L 276.09,90.94 L 276.28,91.37 L 273.74,92.34 Z M 377.90,175.32 L 378.63,175.96 L 376.53,177.35 L 371.88,175.55 L 370.83,175.65 L 369.93,173.78 L 369.59,172.40 L 369.84,171.13 L 372.61,172.15 L 374.08,173.99 L 377.90,175.32 Z M 366.55,127.79 L 363.93,131.57 L 362.57,131.23 L 363.43,126.45 L 365.21,125.71 L 365.90,125.76 L 366.55,127.79 Z M 372.79,193.23 L 370.48,194.26 L 371.02,192.44 L 375.45,189.40 L 377.92,186.70 L 379.31,185.76 L 379.81,185.01 L 381.75,184.03 L 382.73,182.29 L 382.49,180.86 L 380.50,178.47 L 380.55,176.81 L 381.26,175.64 L 384.66,175.13 L 383.74,176.90 L 385.02,181.93 L 380.44,188.12 L 376.55,190.01 L 372.79,193.23 Z M 296.62,76.33 L 301.74,80.44 L 306.18,82.06 L 310.88,87.16 L 312.91,88.98 L 313.24,90.60 L 312.21,97.94 L 310.99,102.35 L 311.05,106.24 L 309.94,105.06 L 308.85,102.49 L 307.00,100.97 L 306.40,100.19 L 309.80,100.11 L 310.22,96.11 L 311.97,92.99 L 311.81,89.70 L 307.96,85.98 L 305.34,82.72 L 301.21,81.60 L 297.46,78.32 L 295.17,77.87 L 292.35,78.35 L 293.43,76.48 L 294.21,74.00 L 294.74,73.55 L 296.62,76.33 Z M 326.21,148.86 L 324.85,149.04 L 322.46,148.05 L 316.91,143.64 L 314.29,143.21 L 315.22,140.81 L 317.19,141.70 L 321.66,145.50 L 323.34,147.39 L 326.21,148.86 Z M 352.52,168.94 L 352.30,169.84 L 348.32,162.73 L 343.20,160.93 L 340.28,159.18 L 340.91,158.22 L 342.98,157.84 L 343.36,155.62 L 342.54,153.19 L 339.93,148.27 L 338.48,144.94 L 337.80,144.17 L 337.66,141.40 L 340.78,145.74 L 342.04,149.57 L 344.12,153.34 L 345.43,159.80 L 349.51,162.06 L 352.43,165.22 L 352.52,168.94 Z M 338.32,122.67 L 338.49,124.47 L 336.34,124.06 L 333.14,124.70 L 332.00,124.69 L 332.74,123.48 L 334.99,121.87 L 335.14,120.29 L 332.46,117.96 L 329.41,112.23 L 327.96,110.85 L 327.31,108.71 L 324.70,106.37 L 325.29,105.16 L 325.84,104.89 L 327.63,105.51 L 331.51,113.74 L 331.76,114.53 L 338.32,122.67 Z M 410.92,185.99 L 412.94,186.51 L 414.04,186.48 L 417.77,187.56 L 419.99,189.02 L 420.49,189.63 L 419.29,190.92 L 415.86,188.45 L 412.87,188.11 L 408.65,188.15 L 406.97,187.67 L 408.11,185.05 L 410.92,185.99 Z M 414.81,218.53 L 410.43,220.23 L 410.00,218.20 L 412.24,216.58 L 414.81,218.53 Z"></path>
    <path class="country" id="AG" data-name="Antigua and Barb." d="M 791.09,366.73 L 790.09,368.19 L 786.32,367.83 L 785.48,366.11 L 785.24,364.88 L 787.45,362.25 L 790.15,363.18 L 791.23,364.31 L 791.98,364.50 L 792.02,365.51 L 791.78,366.27 L 791.09,366.73 Z M 789.03,347.77 L 788.58,348.73 L 785.75,347.20 L 784.75,344.09 L 784.80,343.42 L 785.24,343.05 L 786.36,343.59 L 787.82,343.74 L 788.78,344.72 L 789.03,347.77 Z"></path>
    <path class="country" id="SX" data-name="Sint Maarten" d="M 742.14,332.70 L 745.88,332.52 L 745.88,333.35 L 745.57,334.29 L 743.28,333.62 L 742.10,332.86 L 742.14,332.70 Z"></path>
    <path class="country" id="BQ" data-name="Caribbean Netherlands" d="M 575.85,547.46 L 574.24,551.45 L 573.25,549.70 L 573.03,546.55 L 572.32,545.33 L 570.88,544.60 L 570.09,543.58 L 570.13,542.01 L 575.33,544.41 L 575.85,547.46 Z M 749.32,352.65 L 748.55,353.41 L 747.83,353.38 L 747.32,352.70 L 747.18,351.52 L 747.88,351.81 L 748.14,351.98 L 748.36,352.21 L 749.32,352.65 Z M 739.22,348.62 L 738.93,348.76 L 738.48,348.46 L 738.53,347.87 L 738.87,347.62 L 739.15,347.77 L 739.40,348.22 L 739.22,348.62 Z"></path>
    <path class="country" id="MTQ" data-name="Martinique" d="M 825.86,454.91 L 825.61,456.95 L 824.77,457.39 L 823.41,455.78 L 817.84,456.34 L 816.91,454.89 L 816.83,454.18 L 819.38,451.47 L 816.19,450.97 L 814.88,449.94 L 811.94,444.71 L 812.08,443.14 L 813.14,442.25 L 814.95,442.03 L 818.44,443.57 L 821.10,445.90 L 821.96,445.89 L 822.28,446.57 L 821.86,448.34 L 823.45,449.73 L 824.16,450.78 L 825.86,454.91 Z"></path>
    <path class="country" id="GLP" data-name="Guadeloupe" d="M 805.69,394.51 L 801.75,395.12 L 799.12,394.96 L 798.39,392.46 L 799.61,390.25 L 798.51,387.70 L 799.05,386.11 L 800.32,385.02 L 802.57,386.25 L 803.02,388.17 L 804.48,389.87 L 810.84,393.30 L 805.69,394.51 Z M 797.26,402.90 L 794.61,404.64 L 793.24,404.22 L 791.43,401.27 L 789.83,392.88 L 790.67,391.44 L 791.28,390.88 L 794.92,391.72 L 796.48,392.83 L 798.03,393.50 L 797.34,395.09 L 798.05,401.41 L 797.26,402.90 Z M 809.59,406.36 L 807.72,406.60 L 806.87,406.34 L 806.50,404.23 L 807.88,402.69 L 808.71,402.28 L 810.07,403.85 L 810.44,405.20 L 809.59,406.36 Z"></path>
  </g>
</svg>
