<?xml version="1.0" encoding="UTF-8" standalone="no"?>
<svg xmlns="http://www.w3.org/2000/svg" viewBox="0 0 900 600" width="900" height="600"
     role="img" aria-label="Hawaii map inset">
  <defs>
    <style type="text/css"><![CDATA[
      .ocean { fill: #ffffff; }
      .region { fill: #b9b9b9; stroke: #ffffff; stroke-width: 0.75; vector-effect: non-scaling-stroke; }
    ]]></style>
  </defs>
  <rect class="ocean" x="0" y="0" width="900" height="600"></rect>
  <g id="hawaii">
    <path class="region" d="M 757.17,563.20 L 750.18,571.42 L 741.36,570.88 L 709.14,553.82 L 705.17,544.51 L 707.14,501.09 L 694.84,465.99 L 681.41,439.21 L 690.88,425.32 L 703.42,414.52 L 717.30,394.19 L 705.54,368.40 L 708.32,352.75 L 715.05,349.97 L 748.50,368.61 L 816.06,396.34 L 834.25,416.16 L 837.76,437.66 L 850.04,440.22 L 856.06,454.90 L 873.97,467.55 L 880.00,474.84 L 872.84,486.86 L 840.79,510.16 L 800.06,520.72 L 764.35,546.71 L 757.17,563.20 Z"></path>
    <path class="region" d="M 495.62,192.43 L 528.94,196.99 L 536.81,194.98 L 542.37,198.75 L 569.96,200.96 L 574.71,202.37 L 569.11,211.10 L 551.48,219.16 L 526.06,212.24 L 483.56,209.83 L 485.26,203.11 L 489.30,198.33 L 489.89,190.01 L 495.62,192.43 Z"></path>
    <path class="region" d="M 610.47,239.79 L 614.59,242.78 L 631.37,238.15 L 643.49,236.40 L 663.98,247.36 L 671.13,254.93 L 684.61,262.97 L 689.22,268.84 L 685.53,276.03 L 670.84,288.00 L 650.67,290.90 L 638.81,296.03 L 623.16,295.06 L 618.49,292.94 L 616.71,278.01 L 611.68,261.99 L 601.61,263.95 L 590.27,258.63 L 578.46,245.23 L 577.15,237.18 L 583.54,224.40 L 594.81,222.68 L 603.22,229.67 L 610.47,239.79 Z"></path>
    <path class="region" d="M 403.38,151.64 L 408.79,152.62 L 415.73,151.48 L 418.13,164.95 L 426.21,172.42 L 429.16,176.87 L 420.42,181.58 L 403.41,183.43 L 395.46,179.66 L 387.22,171.23 L 378.29,173.52 L 376.75,166.75 L 375.17,164.78 L 369.04,166.59 L 374.74,175.33 L 359.27,175.93 L 354.36,174.84 L 350.07,164.93 L 334.21,145.89 L 334.32,138.50 L 328.94,129.65 L 352.54,127.22 L 368.74,111.80 L 377.83,110.21 L 395.21,135.27 L 394.75,142.28 L 398.63,149.13 L 403.38,151.64 Z"></path>
    <path class="region" d="M 156.79,69.55 L 142.88,78.90 L 134.90,74.70 L 119.71,72.96 L 113.92,65.74 L 98.09,59.08 L 91.76,50.21 L 101.80,33.71 L 125.07,20.00 L 160.61,21.04 L 167.88,32.20 L 168.43,40.45 L 163.70,49.63 L 161.42,62.63 L 156.79,69.55 Z"></path>
    <path class="region" d="M 29.94,83.20 L 26.64,90.62 L 21.25,89.38 L 20.00,82.69 L 23.70,73.59 L 32.78,65.83 L 42.89,53.96 L 50.99,55.88 L 46.48,63.68 L 45.82,72.24 L 34.23,76.90 L 29.94,83.20 Z"></path>
    <path class="region" d="M 553.30,267.12 L 543.94,271.91 L 533.74,269.75 L 531.32,258.23 L 521.46,243.59 L 538.63,240.56 L 548.32,244.79 L 553.43,249.34 L 559.61,257.20 L 553.30,267.12 Z"></path>
  </g>
</svg>
